<?xml version="1.0" encoding="utf-8"?>
<!-- Generator: Adobe Illustrator 26.5.0, SVG Export Plug-In . SVG Version: 6.00 Build 0)  -->
<svg version="1.1" id="Layer_1" xmlns="http://www.w3.org/2000/svg" xmlns:xlink="http://www.w3.org/1999/xlink" x="0px" y="0px"
	 viewBox="0 0 512 250" style="enable-background:new 0 0 512 250;" xml:space="preserve">
<style type="text/css">
	.st0{fill:#363636;}
</style>
<g>
	<g>
		<path class="st0" d="M49.7,192.2H52v13.5c0,2.1,0,3.5,0,4c0.2,1,0.3,1.9,0.7,2.4c0.3,0.5,0.9,0.9,1.6,0.9c0.5,0,1-0.2,1.4-0.7
			c0.3-0.3,0.5-1,0.7-1.7s0.2-2.3,0.2-4.9v-13.6h2.3V205c0,3.3-0.2,5.8-0.3,7.2c-0.2,1.4-0.7,2.6-1.4,3.7c-0.7,0.9-1.6,1.4-2.8,1.4
			s-2.1-0.3-2.8-1.2c-0.7-0.7-1.2-1.7-1.4-3.1c-0.2-1.4-0.5-3.8-0.5-7.7v-12.9l0,0V192.2z"/>
		<path class="st0" d="M68.8,216.9h-2.3v-9.1c0-1.7,0-3-0.2-3.7s-0.2-1-0.5-1.4c-0.2-0.3-0.5-0.5-0.7-0.5c-0.3,0-0.7,0.2-1,0.7
			c-0.3,0.3-0.5,1-0.7,1.7s-0.2,2.1-0.2,4.2v8h-2.3V199H63v2.6c0.3-1,0.7-1.7,1.2-2.3c0.5-0.5,1-0.7,1.6-0.7c0.7,0,1.2,0.3,1.6,0.9
			c0.5,0.5,0.7,1.4,0.9,2.3s0.2,2.3,0.2,4v11h0.3V216.9z"/>
		<path class="st0" d="M78.6,216.9h-2.1v-2.6c-0.3,1-0.7,1.7-1.2,2.3c-0.5,0.5-0.9,0.7-1.4,0.7c-0.9,0-1.7-0.9-2.4-2.4
			c-0.7-1.6-1-4-1-7c0-3.1,0.3-5.4,1-7s1.6-2.3,2.4-2.3c0.5,0,0.9,0.2,1.4,0.7c0.3,0.3,0.7,1,1,1.9v-8.9h2.3L78.6,216.9L78.6,216.9z
			 M72.6,207.6c0,1.6,0,2.8,0.2,3.7s0.3,1.4,0.7,1.7c0.3,0.3,0.7,0.5,1,0.5c0.5,0,0.9-0.5,1.2-1.4c0.3-0.9,0.5-2.3,0.5-4.2
			c0-2.1-0.2-3.5-0.5-4.4s-0.9-1.4-1.4-1.4s-0.9,0.5-1.2,1.4S72.6,205.7,72.6,207.6z"/>
		<path class="st0" d="M85.4,211.1l2.3,0.9c-0.3,1.7-0.7,3.1-1.4,4c-0.7,0.9-1.4,1.2-2.3,1.2c-1.2,0-2.3-0.7-2.8-2.1
			c-0.9-1.7-1.2-4-1.2-7.2c0-3,0.3-5.4,1.2-7.2c0.7-1.6,1.6-2.3,2.6-2.3c1.2,0,2.1,0.7,2.8,2.3c0.7,1.7,1.2,4.4,1.2,7.9v0.5h-5.6
			c0,1.4,0.2,2.4,0.5,3.3c0.3,0.7,0.7,1.2,1.2,1.2C84.7,213.8,85.2,212.9,85.4,211.1z M85.6,206.4c0-1.4-0.2-2.4-0.5-3.1
			s-0.7-1-1.2-1s-0.9,0.3-1.2,1s-0.5,1.7-0.5,3.1H85.6z"/>
		<path class="st0" d="M91.5,216.9h-2.3v-17.8h2.1v2.6c0.3-1.2,0.7-1.9,0.9-2.4c0.3-0.3,0.5-0.5,1-0.5s1,0.3,1.4,0.9l-0.7,4.2
			c-0.3-0.5-0.7-0.7-1-0.7s-0.5,0.2-0.9,0.5c-0.2,0.3-0.3,1-0.5,2.1s-0.2,3-0.2,5.8v5.4h0.2V216.9z"/>
		<path class="st0" d="M97.1,216.9l-2.6-17.8h2.1l1.6,11.7l1.4-11.7h2.1l1.4,11.7l1.6-11.7h2.3l-2.8,17.8H102l-1.4-11.5l-1.4,11.5
			H97.1z"/>
		<path class="st0" d="M110.1,216.9h-2.3v-17.8h2.1v2.6c0.3-1.2,0.7-1.9,0.9-2.4c0.3-0.3,0.5-0.5,1-0.5s1,0.3,1.4,0.9l-0.7,4.2
			c-0.3-0.5-0.7-0.7-1-0.7s-0.5,0.2-0.9,0.5c-0.3,0.3-0.3,1-0.5,2.1c-0.2,1-0.2,3-0.2,5.8v5.4h0.2V216.9z"/>
		<path class="st0" d="M113.9,196.6v-4.4h2.3v4.4H113.9z M113.9,216.9v-17.8h2.3v17.8H113.9z"/>
		<path class="st0" d="M122.1,199.1v3.8h-1.6v7.2c0,1.6,0,2.4,0,2.8c0.2,0.5,0.3,0.7,0.5,0.7s0.5-0.2,0.9-0.5l0.2,3.7
			c-0.5,0.5-1,0.7-1.7,0.7c-0.5,0-1-0.2-1.4-0.7c-0.3-0.5-0.5-1.2-0.7-2.1c-0.2-0.7-0.2-1.9-0.2-4v-7.9h-1v-3.7h1v-3.5l2.3-2.8v6.3
			H122.1z"/>
		<path class="st0" d="M127.4,199.1v3.8h-1.6v7.2c0,1.6,0,2.4,0,2.8c0.2,0.5,0.3,0.7,0.5,0.7s0.5-0.2,0.9-0.5l0.2,3.7
			c-0.5,0.5-1,0.7-1.7,0.7c-0.5,0-1-0.2-1.4-0.7s-0.5-1.2-0.7-2.1c-0.2-0.7-0.2-1.9-0.2-4v-7.9h-1v-3.7h1v-3.5l2.3-2.8v6.3H127.4z"
			/>
		<path class="st0" d="M133.5,211.1l2.3,0.9c-0.3,1.7-0.7,3.1-1.4,4s-1.4,1.2-2.3,1.2c-1.2,0-2.3-0.7-2.8-2.1
			c-0.9-1.7-1.2-4-1.2-7.2c0-3,0.3-5.4,1.2-7.2c0.7-1.6,1.6-2.3,2.6-2.3c1.2,0,2.1,0.7,2.8,2.3c0.7,1.7,1.2,4.4,1.2,7.9v0.5h-5.6
			c0,1.4,0.2,2.4,0.5,3.3c0.3,0.7,0.7,1.2,1.2,1.2C132.8,213.8,133.3,212.9,133.5,211.1z M133.7,206.4c0-1.4-0.2-2.4-0.5-3.1
			c-0.3-0.7-0.7-1-1.2-1s-0.9,0.3-1.2,1s-0.5,1.7-0.5,3.1H133.7z"/>
		<path class="st0" d="M145,216.9h-2.3v-9.1c0-1.7,0-3-0.2-3.7s-0.2-1-0.5-1.4c-0.2-0.3-0.5-0.5-0.7-0.5c-0.3,0-0.7,0.2-1,0.7
			c-0.3,0.3-0.5,1-0.7,1.7s-0.2,2.1-0.2,4.2v8h-2.3V199h2.1v2.6c0.3-1,0.7-1.7,1.2-2.3s1-0.7,1.6-0.7c0.7,0,1.2,0.3,1.6,0.9
			c0.5,0.5,0.7,1.4,0.9,2.3s0.2,2.3,0.2,4v11h0.3V216.9z"/>
		<path class="st0" d="M151.3,216.9v-24.7h2.3v8.9c0.3-0.9,0.7-1.4,1-1.9c0.3-0.3,0.9-0.7,1.4-0.7c1,0,1.7,0.7,2.4,2.3s1,3.8,1,7
			c0,3-0.3,5.4-1,7s-1.6,2.4-2.4,2.4c-0.5,0-0.9-0.2-1.4-0.7s-0.9-1.2-1.2-2.3v2.6L151.3,216.9L151.3,216.9z M153.6,207.6
			c0,1.6,0,2.8,0.2,3.5c0.2,0.9,0.3,1.4,0.7,1.9c0.3,0.3,0.7,0.7,1,0.7c0.5,0,0.9-0.5,1.2-1.4s0.5-2.3,0.5-4.2
			c0-2.1-0.2-3.5-0.5-4.4s-0.9-1.4-1.4-1.4s-0.9,0.5-1.2,1.4C153.8,204.3,153.6,205.7,153.6,207.6z"/>
		<path class="st0" d="M160.1,199.1h2.4l1.9,12.8l1.9-12.8h2.3l-3,17.3l-0.5,3.3c-0.2,1.2-0.5,2.1-0.7,2.8s-0.5,1-0.9,1.4
			c-0.3,0.3-0.9,0.5-1.4,0.5c-0.3,0-0.9-0.2-1.2-0.3l-0.2-3.7c0.3,0.2,0.7,0.2,0.9,0.2c0.3,0,0.7-0.2,1-0.7s0.5-1.4,0.7-2.6
			L160.1,199.1z"/>
		<path class="st0" d="M174.2,216.9v-24.7h2.3v24.7H174.2z"/>
		<path class="st0" d="M186.1,216.9h-2.3v-9.1c0-1.7,0-3-0.2-3.7s-0.2-1-0.5-1.4c-0.2-0.3-0.5-0.5-0.7-0.5c-0.3,0-0.7,0.2-1,0.7
			c-0.3,0.3-0.5,1-0.7,1.7s-0.2,2.1-0.2,4.2v8h-2.3V199h2.1v2.6c0.3-1,0.7-1.7,1.2-2.3s1-0.7,1.6-0.7c0.7,0,1.2,0.3,1.6,0.9
			c0.5,0.5,0.7,1.4,0.9,2.3c0.2,0.9,0.2,2.3,0.2,4v11h0.3V216.9z"/>
		<path class="st0" d="M195.9,216.9h-2.1v-2.6c-0.3,1-0.7,1.7-1.2,2.3c-0.5,0.5-0.9,0.7-1.4,0.7c-0.9,0-1.7-0.9-2.4-2.4
			c-0.7-1.6-1-4-1-7c0-3.1,0.3-5.4,1-7s1.6-2.3,2.4-2.3c0.5,0,0.9,0.2,1.4,0.7c0.3,0.3,0.7,1,1,1.9v-8.9h2.3V216.9L195.9,216.9z
			 M190,207.6c0,1.6,0,2.8,0.2,3.7s0.3,1.4,0.7,1.7c0.3,0.3,0.7,0.5,1,0.5c0.5,0,0.9-0.5,1.2-1.4s0.5-2.3,0.5-4.2
			c0-2.1-0.2-3.5-0.5-4.4s-0.9-1.4-1.4-1.4s-0.9,0.5-1.2,1.4C190.2,204.5,190,205.7,190,207.6z"/>
		<path class="st0" d="M202.7,211.1l2.3,0.9c-0.3,1.7-0.7,3.1-1.4,4s-1.4,1.2-2.3,1.2c-1.2,0-2.3-0.7-2.8-2.1
			c-0.9-1.7-1.2-4-1.2-7.2c0-3,0.3-5.4,1.2-7.2c0.7-1.6,1.6-2.3,2.6-2.3c1.2,0,2.1,0.7,2.8,2.3c0.7,1.7,1.2,4.4,1.2,7.9v0.5h-5.6
			c0,1.4,0.2,2.4,0.5,3.3c0.3,0.7,0.7,1.2,1.2,1.2C202,213.8,202.6,212.9,202.7,211.1z M202.9,206.4c0-1.4-0.2-2.4-0.5-3.1
			c-0.3-0.7-0.7-1-1.2-1s-0.9,0.3-1.2,1s-0.5,1.7-0.5,3.1H202.9z"/>
		<path class="st0" d="M206.8,199.1h2.1v2.6c0.3-0.9,0.7-1.7,1-2.3c0.5-0.5,1-0.9,1.6-0.9c0.9,0,1.7,0.9,2.4,2.4s1,3.8,1,6.8
			c0,3.1-0.3,5.4-1,7.2c-0.7,1.6-1.6,2.4-2.4,2.4c-0.5,0-0.9-0.2-1.2-0.5s-0.7-1-1.2-2.1v9.1h-2.3L206.8,199.1L206.8,199.1z
			 M208.9,207.6c0,2.1,0.2,3.5,0.5,4.5s0.9,1.4,1.4,1.4s0.9-0.5,1.2-1.4s0.5-2.3,0.5-4.4c0-1.9-0.2-3.3-0.5-4.2s-0.9-1.4-1.2-1.4
			c-0.5,0-1,0.5-1.4,1.4S208.9,205.9,208.9,207.6z"/>
		<path class="st0" d="M221.3,211.1l2.3,0.9c-0.3,1.7-0.7,3.1-1.4,4s-1.4,1.2-2.3,1.2c-1.2,0-2.3-0.7-2.8-2.1
			c-0.9-1.7-1.2-4-1.2-7.2c0-3,0.3-5.4,1.2-7.2c0.7-1.6,1.6-2.3,2.6-2.3c1.2,0,2.1,0.7,2.8,2.3c0.7,1.7,1.2,4.4,1.2,7.9v0.5h-5.6
			c0,1.4,0.2,2.4,0.5,3.3c0.3,0.7,0.7,1.2,1.2,1.2C220.6,213.8,221.1,212.9,221.3,211.1z M221.5,206.4c0-1.4-0.2-2.4-0.5-3.1
			s-0.7-1-1.2-1s-0.9,0.3-1.2,1s-0.5,1.7-0.5,3.1H221.5z"/>
		<path class="st0" d="M232.8,216.9h-2.3v-9.1c0-1.7,0-3-0.2-3.7s-0.2-1-0.5-1.4c-0.2-0.3-0.5-0.5-0.7-0.5c-0.3,0-0.7,0.2-1,0.7
			c-0.3,0.3-0.5,1-0.7,1.7s-0.2,2.1-0.2,4.2v8H225V199h2.1v2.6c0.3-1,0.7-1.7,1.2-2.3s1-0.7,1.6-0.7c0.7,0,1.2,0.3,1.6,0.9
			c0.5,0.5,0.7,1.4,0.9,2.3s0.2,2.3,0.2,4v11h0.2V216.9z"/>
		<path class="st0" d="M242.6,216.9h-2.1v-2.6c-0.3,1-0.7,1.7-1.2,2.3c-0.5,0.5-0.9,0.7-1.4,0.7c-0.9,0-1.7-0.9-2.4-2.4
			c-0.7-1.6-1-4-1-7c0-3.1,0.3-5.4,1-7s1.6-2.3,2.4-2.3c0.5,0,0.9,0.2,1.4,0.7c0.3,0.3,0.7,1,1,1.9v-8.9h2.3V216.9L242.6,216.9z
			 M236.7,207.6c0,1.6,0,2.8,0.2,3.7s0.3,1.4,0.7,1.7c0.3,0.3,0.7,0.5,1,0.5c0.5,0,0.9-0.5,1.2-1.4s0.5-2.3,0.5-4.2
			c0-2.1-0.2-3.5-0.5-4.4s-0.9-1.4-1.4-1.4s-0.9,0.5-1.2,1.4C236.9,204.5,236.7,205.7,236.7,207.6z"/>
		<path class="st0" d="M249.4,211.1l2.3,0.9c-0.3,1.7-0.7,3.1-1.4,4s-1.4,1.2-2.3,1.2c-1.2,0-2.3-0.7-2.8-2.1
			c-0.9-1.7-1.2-4-1.2-7.2c0-3,0.3-5.4,1.2-7.2c0.7-1.6,1.6-2.3,2.6-2.3c1.2,0,2.1,0.7,2.8,2.3c0.7,1.7,1.2,4.4,1.2,7.9v0.5h-5.6
			c0,1.4,0.2,2.4,0.5,3.3c0.3,0.7,0.7,1.2,1.2,1.2C248.7,213.8,249.3,212.9,249.4,211.1z M249.6,206.4c0-1.4-0.2-2.4-0.5-3.1
			s-0.7-1-1.2-1s-0.9,0.3-1.2,1s-0.5,1.7-0.5,3.1H249.6z"/>
		<path class="st0" d="M261.2,216.9h-2.3v-9.1c0-1.7,0-3-0.2-3.7s-0.2-1-0.5-1.4c-0.2-0.3-0.5-0.5-0.7-0.5c-0.3,0-0.7,0.2-1,0.7
			c-0.3,0.3-0.5,1-0.7,1.7s-0.2,2.1-0.2,4.2v8h-2.3V199h2.1v2.6c0.3-1,0.7-1.7,1.2-2.3c0.5-0.5,1-0.7,1.6-0.7c0.7,0,1.2,0.3,1.6,0.9
			c0.5,0.5,0.7,1.4,0.9,2.3s0.2,2.3,0.2,4v11h0.3V216.9z"/>
		<path class="st0" d="M270.4,204.3l-2.3,0.9c-0.2-1.9-0.7-2.8-1.6-2.8c-0.5,0-1,0.3-1.4,1.2c-0.3,0.9-0.5,2.1-0.5,4.2
			c0,2.1,0.2,3.7,0.5,4.5c0.3,0.9,0.7,1.4,1.4,1.4c0.3,0,0.7-0.2,1-0.7s0.5-1.4,0.5-2.6l2.3,0.9c-0.5,4.4-1.7,6.5-3.8,6.5
			c-1.4,0-2.4-0.9-3-2.8c-0.7-1.7-1-4-1-6.6c0-3.1,0.3-5.4,1-7s1.7-2.4,3-2.4c1,0,1.7,0.5,2.4,1.4
			C269.7,200.8,270.3,202.2,270.4,204.3z"/>
		<path class="st0" d="M276.9,211.1l2.3,0.9c-0.3,1.7-0.7,3.1-1.4,4s-1.4,1.2-2.3,1.2c-1.2,0-2.3-0.7-2.8-2.1
			c-0.9-1.7-1.2-4-1.2-7.2c0-3,0.3-5.4,1.2-7.2c0.7-1.6,1.6-2.3,2.6-2.3c1.2,0,2.1,0.7,2.8,2.3c0.7,1.7,1.2,4.4,1.2,7.9v0.5h-5.6
			c0,1.4,0.2,2.4,0.5,3.3c0.3,0.7,0.7,1.2,1.2,1.2C276.2,213.8,276.5,212.9,276.9,211.1z M276.9,206.4c0-1.4-0.2-2.4-0.5-3.1
			c-0.3-0.7-0.7-1-1.2-1s-0.9,0.3-1.2,1c-0.3,0.7-0.5,1.7-0.5,3.1H276.9z"/>
		<path class="st0" d="M294.9,216.9h-2.6l-1-5.6h-4.7l-0.9,5.6h-2.4l4.5-24.7h2.4L294.9,216.9z M290.7,207.1l-1.6-9.1l-1.6,9.1
			H290.7z"/>
		<path class="st0" d="M295.8,199.1h2.1v2.4c0.3-0.9,0.7-1.7,1.2-2.1c0.5-0.5,0.9-0.7,1.4-0.7s1,0.2,1.4,0.7c0.3,0.5,0.7,1.2,1,2.1
			c0.3-0.9,0.7-1.7,1.2-2.1c0.3-0.5,0.9-0.7,1.4-0.7s1,0.2,1.4,0.7c0.3,0.5,0.7,1.2,0.9,2.1s0.3,2.3,0.3,4V217h-2.3v-10.3
			c0-1.7-0.2-3-0.3-3.5s-0.5-0.9-0.9-0.9c-0.5,0-0.9,0.3-1.2,1.2s-0.5,2.4-0.5,4.9v8.6h-2.3v-9.8c0-1.9,0-3.1-0.2-3.8s-0.5-1-1-1
			c-0.3,0-0.7,0.2-0.9,0.5c-0.3,0.3-0.5,0.9-0.5,1.7c-0.2,0.7-0.2,1.9-0.2,3.7v8.7h-2.3v-18h0.3V199.1z"/>
		<path class="st0" d="M315,211.1l2.3,0.9c-0.3,1.7-0.7,3.1-1.4,4s-1.4,1.2-2.3,1.2c-1.2,0-2.3-0.7-2.8-2.1c-0.9-1.7-1.2-4-1.2-7.2
			c0-3,0.3-5.4,1.2-7.2c0.7-1.6,1.6-2.3,2.6-2.3c1.2,0,2.1,0.7,2.8,2.3c0.7,1.7,1.2,4.4,1.2,7.9v0.5h-5.6c0,1.4,0.2,2.4,0.5,3.3
			c0.3,0.7,0.7,1.2,1.2,1.2C314.3,213.8,314.8,212.9,315,211.1z M315.2,206.4c0-1.4-0.2-2.4-0.5-3.1c-0.3-0.7-0.7-1-1.2-1
			s-0.9,0.3-1.2,1s-0.5,1.7-0.5,3.1H315.2z"/>
		<path class="st0" d="M321.1,216.9h-2.3v-17.8h2.1v2.6c0.3-1.2,0.7-1.9,0.9-2.4c0.3-0.3,0.5-0.5,1-0.5s1,0.3,1.4,0.9l-0.7,4.2
			c-0.3-0.5-0.7-0.7-1-0.7s-0.5,0.2-0.9,0.5c-0.2,0.3-0.3,1-0.5,2.1c-0.2,1-0.2,3-0.2,5.8v5.4h0.2V216.9z"/>
		<path class="st0" d="M325,196.6v-4.4h2.3v4.4H325z M325,216.9v-17.8h2.3v17.8H325z"/>
		<path class="st0" d="M336.7,204.3l-2.3,0.9c-0.2-1.9-0.7-2.8-1.6-2.8c-0.5,0-1,0.3-1.4,1.2c-0.3,0.9-0.5,2.1-0.5,4.2
			c0,2.1,0.2,3.7,0.5,4.5c0.3,0.9,0.7,1.4,1.4,1.4c0.3,0,0.7-0.2,1-0.7s0.5-1.4,0.5-2.6l2.3,0.9c-0.5,4.4-1.7,6.5-3.8,6.5
			c-1.4,0-2.4-0.9-3-2.8c-0.7-1.7-1-4-1-6.6c0-3.1,0.3-5.4,1-7s1.7-2.4,3-2.4c1,0,1.7,0.5,2.4,1.4
			C336,200.8,336.4,202.2,336.7,204.3z"/>
		<path class="st0" d="M339.9,204.5l-2.1-0.7c0.2-1.7,0.7-3.1,1.2-3.8c0.5-0.9,1.4-1.2,2.4-1.2c0.9,0,1.6,0.2,2.1,0.7s0.9,1,1,1.9
			s0.3,2.3,0.3,4.4v5.6c0,1.6,0,2.8,0.2,3.5c0,0.7,0.2,1.6,0.3,2.4H343l-0.3-1.9c-0.3,0.9-0.7,1.4-1.2,1.7c-0.3,0.3-0.9,0.5-1.4,0.5
			c-0.9,0-1.4-0.5-1.9-1.4c-0.5-1-0.7-2.3-0.7-3.8c0-1,0.2-1.9,0.3-2.6s0.5-1.4,0.9-1.7c0.3-0.5,1-0.9,1.9-1.2
			c1-0.3,1.7-0.9,2.1-1.2c0-1,0-1.6-0.2-1.9c0-0.3-0.2-0.5-0.5-0.7c-0.2-0.2-0.5-0.3-0.9-0.3s-0.7,0.2-0.9,0.5
			C340.2,202.9,340,203.6,339.9,204.5z M342.8,208.3c-0.3,0.2-0.7,0.5-1.4,0.7c-0.7,0.3-1.2,0.7-1.4,1c-0.2,0.3-0.3,0.9-0.3,1.6
			c0,0.7,0.2,1.2,0.3,1.7c0.2,0.5,0.5,0.7,0.9,0.7s0.7-0.2,0.9-0.5c0.3-0.3,0.5-0.9,0.7-1.4s0.2-1.4,0.2-2.8L342.8,208.3
			L342.8,208.3z"/>
		<path class="st0" d="M354.5,216.9h-2.1v-9.1c0-1.7,0-3-0.2-3.7s-0.2-1-0.5-1.4c-0.2-0.3-0.5-0.5-0.7-0.5c-0.3,0-0.7,0.2-1,0.7
			c-0.3,0.3-0.5,1-0.7,1.7s-0.2,2.1-0.2,4.2v8h-2.3V199h2.1v2.6c0.3-1,0.7-1.7,1.2-2.3c0.5-0.5,1-0.7,1.6-0.7c0.7,0,1.2,0.3,1.6,0.9
			c0.5,0.5,0.7,1.4,0.9,2.3s0.2,2.3,0.2,4v11h0.1V216.9z"/>
		<path class="st0" d="M360.8,216.9v-24.7h2.3v24.7H360.8z"/>
		<path class="st0" d="M372.9,216.9h-2.3v-9.1c0-1.7,0-3-0.2-3.7s-0.2-1-0.5-1.4c-0.2-0.3-0.5-0.5-0.7-0.5c-0.3,0-0.7,0.2-1,0.7
			c-0.3,0.3-0.5,1-0.7,1.7s-0.2,2.1-0.2,4.2v8H365V199h2.1v2.6c0.3-1,0.7-1.7,1.2-2.3c0.5-0.5,1-0.7,1.6-0.7c0.7,0,1.2,0.3,1.6,0.9
			c0.5,0.5,0.7,1.4,0.9,2.3s0.2,2.3,0.2,4v11h0.3V216.9z"/>
		<path class="st0" d="M374.1,211.8l2.3-0.7c0.2,1.9,0.9,2.8,1.7,2.8c0.5,0,0.9-0.2,1.2-0.5c0.3-0.3,0.3-0.9,0.3-1.4
			c0-0.3,0-0.7-0.2-0.9s-0.3-0.3-0.7-0.5c-1.7-0.9-3-1.6-3.5-2.4c-0.7-0.9-0.9-2.3-0.9-4s0.3-3,0.9-4c0.5-1,1.4-1.6,2.6-1.6
			c1,0,1.9,0.3,2.4,1s1,1.9,1.2,3.7l-2.1,0.9c-0.2-1.4-0.7-2.1-1.6-2.1c-0.5,0-0.9,0.2-1.2,0.3s-0.3,0.7-0.3,1s0.2,0.7,0.3,1
			c0.2,0.3,0.9,0.7,1.9,1.2c1.2,0.7,2.1,1.4,2.4,2.3c0.5,0.9,0.7,2.1,0.7,3.5c0,1.7-0.3,3.1-1,4.4c-0.7,1-1.6,1.7-2.8,1.7
			c-1,0-1.9-0.5-2.6-1.4C374.8,215,374.5,213.6,374.1,211.8z"/>
		<path class="st0" d="M389.3,216.9v-2.6c-0.3,1-0.7,1.7-1.2,2.3c-0.5,0.5-1,0.9-1.6,0.9s-1-0.2-1.4-0.7c-0.3-0.5-0.7-1.2-1-2.1
			c-0.2-0.9-0.3-2.3-0.3-4v-11.5h2.3v8.2c0,2.3,0,3.8,0.2,4.5c0,0.7,0.2,1,0.5,1.4c0.2,0.3,0.5,0.5,0.9,0.5s0.7-0.2,1-0.7
			s0.5-1,0.7-1.7s0.2-2.3,0.2-4.7v-7.5h2.3V217L389.3,216.9L389.3,216.9z"/>
		<path class="st0" d="M395.6,216.9h-2.3v-17.8h2.1v2.6c0.3-1.2,0.7-1.9,0.9-2.4c0.3-0.3,0.5-0.5,1-0.5s1,0.3,1.4,0.9l-0.7,4.2
			c-0.3-0.5-0.7-0.7-1-0.7s-0.5,0.2-0.9,0.5c-0.2,0.3-0.3,1-0.5,2.1c-0.2,1-0.2,3-0.2,5.8v5.4h0.2V216.9z"/>
		<path class="st0" d="M401.2,204.5l-2.1-0.7c0.2-1.7,0.7-3.1,1.2-3.8c0.5-0.9,1.4-1.2,2.4-1.2c0.9,0,1.6,0.2,2.1,0.7s0.9,1,1,1.9
			s0.3,2.3,0.3,4.4v5.6c0,1.6,0,2.8,0.2,3.5c0,0.7,0.2,1.6,0.3,2.4h-2.3l-0.3-1.9c-0.3,0.9-0.7,1.4-1.2,1.7
			c-0.3,0.3-0.9,0.5-1.4,0.5c-0.9,0-1.4-0.5-1.9-1.4c-0.5-1-0.7-2.3-0.7-3.8c0-1,0.2-1.9,0.3-2.6s0.5-1.4,0.9-1.7
			c0.3-0.5,1-0.9,1.9-1.2c1-0.3,1.7-0.9,2.1-1.2c0-1,0-1.6-0.2-1.9c0-0.3-0.2-0.5-0.5-0.7c-0.2-0.2-0.5-0.3-0.9-0.3
			c-0.3,0-0.7,0.2-0.9,0.5C401.6,202.9,401.4,203.6,401.2,204.5z M404.2,208.3c-0.3,0.2-0.7,0.5-1.4,0.7c-0.7,0.3-1.2,0.7-1.4,1
			c-0.2,0.3-0.3,0.9-0.3,1.6c0,0.7,0.2,1.2,0.3,1.7c0.2,0.5,0.5,0.7,0.9,0.7s0.7-0.2,0.9-0.5c0.3-0.3,0.5-0.9,0.7-1.4
			s0.2-1.4,0.2-2.8L404.2,208.3L404.2,208.3z"/>
		<path class="st0" d="M416.1,216.9h-2.3v-9.1c0-1.7,0-3-0.2-3.7s-0.2-1-0.5-1.4c-0.2-0.3-0.5-0.5-0.7-0.5c-0.3,0-0.7,0.2-1,0.7
			c-0.3,0.3-0.5,1-0.7,1.7s-0.2,2.1-0.2,4.2v8h-2.1V199h2.1v2.6c0.3-1,0.7-1.7,1.2-2.3c0.5-0.5,1-0.7,1.6-0.7c0.7,0,1.2,0.3,1.6,0.9
			c0.5,0.5,0.7,1.4,0.9,2.3s0.2,2.3,0.2,4v11h0.1V216.9z"/>
		<path class="st0" d="M425.4,204.3l-2.3,0.9c-0.2-1.9-0.7-2.8-1.6-2.8c-0.5,0-1,0.3-1.4,1.2c-0.3,0.9-0.5,2.1-0.5,4.2
			c0,2.1,0.2,3.7,0.5,4.5c0.3,0.9,0.7,1.4,1.4,1.4c0.3,0,0.7-0.2,1-0.7s0.5-1.4,0.5-2.6l2.3,0.9c-0.5,4.4-1.7,6.5-3.8,6.5
			c-1.4,0-2.4-0.9-3-2.8c-0.7-1.7-1-4-1-6.6c0-3.1,0.3-5.4,1-7s1.7-2.4,3-2.4c1,0,1.7,0.5,2.4,1.4
			C424.7,200.8,425.2,202.2,425.4,204.3z"/>
		<path class="st0" d="M431.8,211.1l2.3,0.9c-0.3,1.7-0.7,3.1-1.4,4s-1.4,1.2-2.3,1.2c-1.2,0-2.3-0.7-2.8-2.1
			c-0.9-1.7-1.2-4-1.2-7.2c0-3,0.3-5.4,1.2-7.2c0.7-1.6,1.6-2.3,2.6-2.3c1.2,0,2.1,0.7,2.8,2.3c0.7,1.7,1.2,4.4,1.2,7.9v0.5h-5.6
			c0,1.4,0.2,2.4,0.5,3.3c0.3,0.7,0.7,1.2,1.2,1.2C431,213.8,431.5,212.9,431.8,211.1z M431.8,206.4c0-1.4-0.2-2.4-0.5-3.1
			s-0.7-1-1.2-1s-0.9,0.3-1.2,1s-0.5,1.7-0.5,3.1H431.8z"/>
		<path class="st0" d="M447.4,207.8l2.3,1.6c-0.3,2.8-0.9,4.7-1.7,6.1c-0.9,1.2-1.7,1.9-3,1.9c-1.6,0-2.8-1-3.7-3
			c-1-2.3-1.6-5.6-1.6-9.4c0-4.2,0.5-7.5,1.6-10c0.9-2.1,2.3-3.1,3.8-3.1c1.2,0,2.4,0.7,3.3,2.3c0.7,1,1,2.8,1.4,4.9l-2.3,1.2
			c-0.2-1.4-0.5-2.4-0.9-3.1c-0.5-0.7-0.9-1-1.6-1c-0.9,0-1.6,0.7-2.1,1.9s-0.9,3.5-0.9,6.5c0,3.1,0.3,5.2,0.9,6.6
			c0.5,1.4,1.2,1.9,2.1,1.9c0.7,0,1.2-0.3,1.6-1.2C446.9,211,447.2,209.6,447.4,207.8z"/>
		<path class="st0" d="M450.9,207.6c0-1.7,0.2-3.3,0.5-4.7s0.9-2.4,1.6-3.3c0.7-0.7,1.4-1,2.1-1c1.4,0,2.4,0.9,3.1,2.8
			s1.2,4,1.2,6.5c0,1.9-0.2,3.5-0.5,5.1s-0.9,2.6-1.6,3.3s-1.4,1-2.1,1c-1.2,0-2.3-0.9-3.1-2.4C451.4,213.2,450.9,210.8,450.9,207.6
			z M453.2,208c0,1.7,0.2,3.1,0.5,4.2c0.3,0.9,0.9,1.4,1.4,1.4s1-0.5,1.4-1.4c0.3-0.9,0.5-2.3,0.5-4.2c0-1.7-0.2-3.1-0.5-4
			s-0.9-1.4-1.4-1.4s-1,0.5-1.4,1.4C453.5,204.8,453.2,206.1,453.2,208z"/>
		<path class="st0" d="M461.2,216.9v-4.7h2.3v4.7H461.2z"/>
	</g>
	<g>
		<g>
			<g>
				<g>
					<g>
						<path class="st0" d="M98.9,88.4l-4,19.4c1.6,0,2.8,0.2,4.2,0C99,101.3,99.4,94.7,98.9,88.4z"/>
						<path class="st0" d="M177,93.3c-4.2-17.8-22-34.5-40.2-37.1c-22-3.8-42.7,5.9-53.9,25c-8.7,14.5-8.6,36.7,0.5,51.1
							c3.8,6.8,10.3,13.3,16.8,17.5c15.7,10.7,41.1,10.7,56.3-0.9C174.9,136.5,182.6,114.8,177,93.3z M109.7,150.1l-6.5-8
							c-2.1-0.9-3,2.4-4.9,1.9l-0.3-0.9c2.1-9.4,1.4-20.3,1-30.3c-1-1.2-3.1-0.5-4.7-0.5l-0.7,1c-1.2,7-2.4,13.8-3.5,20.8
							c-0.5,0-0.7-0.5-0.9-0.9c-0.9-2.8-0.9-5.9-2.4-8.4c-1.4,0-3.7,0.9-4.4-0.9c0.9-2.3,3-4,4-6.3c7-14.7,10-31,12.1-47.6
							c1.2-0.3,1.4,1.2,2.3,1.9h0.3c1.6-2.6,2.3-5.8,5.2-7.7c0.2,1.4-0.7,2.8-0.9,4.2l-0.9,10.3l-0.3,28.7c0.7,14.9,3.8,28.9,6.3,43
							L109.7,150.1z M147,150.6c-3.1,0-5.6-1.7-8-3.3c-2.3,1.2-3,4.5-5.8,5.2c0.9-13.3,1.2-27.6-3-39.7c-1-1.9-1.9-4.4-4.2-5.4
							c-1-0.5-2.1,0.5-2.6,1.6c-1,4-0.7,9.1-0.3,13.5l4.2,30.6c0.3,0.7,0.5,1.6,0.3,2.4c-3.5-1.9-4.5-5.8-7-8.6H120
							c-1.6,1.6-2.6,3.7-4.7,4.4l-0.2-0.3l3.1-32.5c0-16.1,1.2-33.8-4-48.1c-0.7-2.4-1.9-4.9-2.1-7.5c2.3,0.2,4,2.6,6.1,3.7l1.2-0.3
							l7.5-7h0.5c-0.3,5.2-1.4,10.5-1.9,15.7c-0.9,9.1-2.1,18.2-2.1,27.5c0.3,0.3,0.2,1.2,0.9,1c3.1-4.5,4.4-10,6.3-15
							c2.8-8.6,4-17.8,4.2-27.5c1.9,0.5,2.6,2.6,3.8,4c0.7,1,1,2.1,2.1,3c1.6,0,2.4-1,3.8-1.4c1.7-0.5,3.7-0.9,5.6-0.7
							c-8.7,11.5-16.1,23.8-21.5,36.6l0.2,0.9c10.1,10.8,8.2,26.4,14.5,38.8c1.2,2.6,2.4,5.2,4.2,7.5
							C147.5,150.3,147.3,150.6,147,150.6z M168.8,129.5c-2.8,5.1-7,10-11.7,14c-1.7-0.7-2.4-2.8-3.5-4.2
							c-9.3-17.5-8.7-42.3-1.4-60.5c1.2-2.4,2.3-4.9,4-7c1.6,0.3,3.1,2.1,4.4,3.5c3,3.8,4.5,8.6,6.6,12.8c0.7,0.3,0.9-0.5,1.6-0.3
							c-1.6,4.7-1.9,9.8-3,14.7c-1.9-9.3-2.4-19.1-8.4-26.6c-0.3,0-0.7,0.2-0.9,0.5c-3,18.5-3.5,39-0.7,57.9
							c0.5,1.9,0.5,4.2,1.6,5.8c5.4-4.7,8.6-11,11-17.1c0.7-0.9,2.1-0.5,3.1-0.3C171.4,124.9,169.9,127.2,168.8,129.5z"/>
					</g>
					<g>
						<path class="st0" d="M126.7,180.7c0-0.3-0.2-0.5,0.2-0.7c2.4-0.5,4.4,1,5.8,3c0.2,0.3,0.5,0.5,0.3,1c-1,1-2.4,0.2-3.7-0.2
							C128.1,183.1,127.4,181.7,126.7,180.7z"/>
						<path class="st0" d="M121.8,181.2c0-0.5-0.5-0.9-0.5-1.4c1.6-0.3,3.1,0.2,4.4,1.4c0.9,0.7,1.2,1.7,1.7,2.6
							c-0.5,1-1.9,0.5-2.6,0.3C123.4,183.8,122.5,182.3,121.8,181.2z"/>
						<path class="st0" d="M118.5,183.1c-1-1.2-2.1-2.3-2.1-3.8c2.1-0.5,4,1,5.1,2.8c0.2,0.7,1.4,1.6,0.2,1.9
							C120.4,184.2,119.3,183.8,118.5,183.1z"/>
						<path class="st0" d="M131.9,180.2V180c1.9-0.7,3.7,0.2,5.1,1.2c0.5,0.7,1.7,1.4,1.4,2.3c-1,0.9-2.4,0.3-3.7,0
							C133.7,182.8,132.4,181.6,131.9,180.2z"/>
						<path class="st0" d="M112.7,181.7c-0.5-1-1.4-2.1-1.4-3.5c1.2-0.2,2.4,0.2,3.3,1c1,1,1.9,2.3,2.3,3.7
							c-0.2,0.3-0.5,0.5-0.9,0.5C114.8,183.3,113.6,182.8,112.7,181.7z"/>
						<path class="st0" d="M137.5,180c-0.2-0.9,1-0.5,1.7-0.9c2.1,0,3.7,1.2,5.1,2.8c0.2,0.7-0.5,0.9-0.9,1
							C140.7,183.7,138.9,181.7,137.5,180z"/>
						<path class="st0" d="M107.3,179.8c-0.3-0.9-0.9-1.7-0.9-2.8c1-0.3,1.9,0.2,2.6,0.7c1.6,1,2.1,2.6,2.6,4.2
							c-0.3,0.7-1.4,0.5-1.9,0.2C108.8,181.7,107.6,180.9,107.3,179.8z"/>
						<path class="st0" d="M142.6,178.8c1-0.7,2.4-0.5,3.7-0.2c1.2,0.5,2.8,1.2,3.3,2.6c-1,0.9-2.8,0.9-4,0.3
							C144.5,180.7,142.9,180.2,142.6,178.8z"/>
						<path class="st0" d="M102,178.1c-0.3-0.9-0.7-2.1-0.3-3c1.6,0.2,2.8,1.2,3.7,2.6c0.3,1,0.9,1.9,1,3c-0.5,0.5-1.7,0.2-2.3-0.2
							C102.9,180,102.4,179,102,178.1z"/>
						<path class="st0" d="M147.7,177.9c0-0.7,0.9-0.5,1.4-0.9c2.3-0.3,4.2,0.7,5.8,2.3c-0.2,1-1.2,0.9-1.9,1.2
							C150.6,180.7,149.1,179.3,147.7,177.9z"/>
						<path class="st0" d="M97.3,176.9c-0.3-1-0.7-2.3-0.5-3.5c1.4-0.2,2.8,1.2,3.7,2.6c0.3,1,1,2.3,0.7,3.5
							C99.2,179.5,98,178.3,97.3,176.9z"/>
						<path class="st0" d="M152.7,176.2c0.2-0.5,0.9-0.7,1.4-0.9c2.3-0.5,4.2,0.5,5.8,1.9c0,0.7-1,1.2-1.7,1.2
							C155.9,179,154.1,177.6,152.7,176.2z"/>
						<path class="st0" d="M92.4,174.6c-0.2-1.2-0.7-2.4-0.3-3.7c1.4,0.2,2.8,1.4,3.3,2.8c0.3,1,1,2.4,0.3,3.7
							C94.1,177.4,93.1,176,92.4,174.6z"/>
						<path class="st0" d="M157.6,174.2c0.2-0.9,1.2-0.7,1.7-1c2.1-0.3,4,0.5,5.6,1.7c-0.3,1.2-1.9,1-3,1.4
							C160.4,176.3,158.9,175.5,157.6,174.2z"/>
						<path class="st0" d="M88.9,173.7c-1.2-1.4-1.4-3.5-1-5.2c1.2,0.2,2.6,1.6,3.1,2.8c0.2,1.2,0.9,2.4,0.3,3.7
							C90.3,175.1,89.6,174.4,88.9,173.7z"/>
						<path class="st0" d="M162.7,172c0.2-0.7,1-0.9,1.7-1.2c1.9-0.5,3.8,0.3,5.4,1c0.3,0.7-0.7,1.4-1.2,1.6
							C166.4,174.4,164.3,173.2,162.7,172z"/>
						<path class="st0" d="M83.7,170.2c-0.5-1.2-0.7-3.1-0.3-4.5c0.9-0.2,1.6,0.5,2.1,1.2c1,1.6,1.6,3.5,1,5.4
							C85.2,172.3,84.4,171.1,83.7,170.2z"/>
						<path class="st0" d="M167.1,169.2c1.2-1.6,3.3-1.6,5.2-1.2c0.7,0.3,2.4,0.3,1.9,1.6c-1.2,1.2-3.1,1.6-4.7,1
							C168.6,170.4,167.8,169.9,167.1,169.2z"/>
						<path class="st0" d="M79.3,166.9c-0.3-1.4-0.7-3.7,0.2-4.7c2.3,1,2.8,3.5,2.8,5.8l-0.3,1C80.7,169.3,79.8,167.8,79.3,166.9z"
							/>
						<path class="st0" d="M171.4,166.4c0.9-1.6,2.6-1.7,4.4-1.7c1,0,1.9,0.3,2.8,0.9c0.3,0.7-0.5,1.4-1,1.7
							C175.6,168.3,173.2,167.6,171.4,166.4z"/>
						<path class="st0" d="M74.9,162.9c-0.2-1.4-0.2-3,0.5-4c0.9-0.2,1.7,1,2.1,1.7c0.5,1.6,0.9,3.7,0.2,5.1
							C76.1,165.5,75.3,164.1,74.9,162.9z"/>
						<path class="st0" d="M175.6,163.2c0.5-1,1.6-1.6,2.6-1.9c1.6-0.2,3.3-0.3,4.5,0.5c-0.2,1.7-2.1,2.1-3.3,2.4
							C178.1,164.1,176.7,164.1,175.6,163.2z"/>
						<path class="st0" d="M71.2,160.1c-0.9-1.7-0.3-3.7,0.5-5.2c0.9,0.2,1.4,1,1.7,1.7c0.7,1.6,0.7,3.8,0,5.2
							C72.5,162.2,71.6,160.8,71.2,160.1z"/>
						<path class="st0" d="M179.5,159.5c0.5-1.2,1.7-1.7,2.8-2.1c1.2-0.2,3-0.3,4.2,0.2c0.3,1-0.7,1.7-1.4,2.3
							C183.3,160.9,181.1,160.4,179.5,159.5z"/>
						<path class="st0" d="M67.2,154.6c0-1.6,0.3-3.1,1.2-4.2c1.2,1,1.7,2.4,1.7,4c0,1.2-0.3,2.6-1,3.3
							C67.9,157.3,67.4,155.9,67.2,154.6z"/>
						<path class="st0" d="M183.3,155.9c0.5-1.7,2.4-2.4,4-2.6c1,0,1.9,0,2.8,0.3c-0.2,1.6-1.7,2.4-3,2.8
							C186,156.4,184.4,156.6,183.3,155.9z"/>
						<path class="st0" d="M63.7,150.4c-0.2-1.7,0.5-3.1,1.4-4.4c1.2,0.9,1.6,2.4,1.7,3.8c-0.2,1.2-0.3,2.4-1,3.7
							C64.4,153.2,64.1,151.7,63.7,150.4z"/>
						<path class="st0" d="M186.7,151.8c0.5-1.7,2.6-2.8,4.5-3c0.7,0.2,1.7-0.3,2.3,0.3c0.2,1.4-1,1.9-1.9,2.6
							C190,152.5,187.9,152.5,186.7,151.8z"/>
						<path class="st0" d="M60.9,146.8c-0.3-1.9,0.5-4,1.7-5.2c1.6,1.7,1.4,4.4,0.5,6.5c-0.3,0.3-0.3,0.9-0.9,1
							C61.4,148.7,61.1,147.6,60.9,146.8z"/>
						<path class="st0" d="M189.6,147.6c0.2-1.2,1.2-2.4,2.4-3c1.2-0.3,2.4-0.7,3.8-0.5c0.3,0.3,0.3,1,0,1.4
							C194.9,148,191.7,148,189.6,147.6z"/>
						<path class="st0" d="M58.1,142.4c-0.5-2.1,0.5-4,1.9-5.4c1.2,1,1.2,3.1,0.9,4.7c-0.3,0.9-0.7,2.1-1.6,2.6
							C58.6,144,58.5,143.1,58.1,142.4z"/>
						<path class="st0" d="M192.4,143.3c0.2-1.2,1.2-2.3,2.3-3c1.2-0.5,2.4-0.9,3.8-0.9c0.5,0.5,0.2,1.2-0.2,1.7
							C197.3,143.3,194.7,143.5,192.4,143.3z"/>
						<path class="st0" d="M55.8,137.9c-0.7-2.3,0.7-4.2,1.9-5.8c0.7,0.2,0.9,1.2,1,1.9c0.2,2.1-0.7,3.7-1.7,5.1
							C56.2,139.4,56.2,138.4,55.8,137.9z"/>
						<path class="st0" d="M194.9,138.4c0.3-2.3,2.6-3.7,4.7-4h1.2c0.2,0.9-0.2,1.9-0.9,2.6C198.7,138.4,196.6,138.9,194.9,138.4z"
							/>
						<path class="st0" d="M53.7,133.3c-0.9-2.4,0.5-4.5,1.9-6.3l0.3-0.2c1,1,0.9,2.8,0.5,4.2C56,131.9,55.3,135.6,53.7,133.3z"/>
						<path class="st0" d="M197.2,133.7c-0.2-0.9,0.3-1.9,1-2.6c1.2-1.2,2.6-1.9,4.4-2.1c0.7,0.3,0.3,1.2,0.2,1.7
							C201.7,133,199.3,133.7,197.2,133.7z"/>
						<path class="st0" d="M51.8,127.5c-0.5-2.4,1-4.5,3-5.8c1.4,2.4-0.2,5.1-1.7,7C52.2,129.1,52.2,128.1,51.8,127.5z"/>
						<path class="st0" d="M198.9,128.4c0.2-2.4,2.4-4,4.5-4.7c0.3-0.2,1-0.2,1,0.5c0,1.7-1.2,3.1-2.8,3.8
							C200.8,128.1,199.8,128.8,198.9,128.4z"/>
						<path class="st0" d="M200.3,123.5c-0.2-2.1,1.6-3.8,3.3-4.7c0.5-0.3,1.2-0.7,1.9-0.5c0.3,1.2-0.2,2.3-0.7,3.1
							C203.6,122.6,201.9,123.3,200.3,123.5z"/>
						<path class="st0" d="M50.6,122.6c-0.5-2.4,1-4.5,3-5.9c0.5,0.2,0.5,0.9,0.7,1.2c0.3,2.3-1.2,4.2-2.6,5.6
							C50.9,123.7,50.8,123,50.6,122.6z"/>
						<path class="st0" d="M201.3,116.7c0.7-1.9,2.4-3.5,4.4-4.2c0.9,0.3,0.5,1.7,0.3,2.3c-0.5,2.1-3,3.1-4.7,3.3V116.7z"/>
						<path class="st0" d="M49.5,117.2c0-1.2,0-2.6,0.9-3.7c0.9-0.9,1.6-1.9,2.8-2.1c0.7,1.6,0.2,3.7-0.9,4.9
							C51.5,117,50.2,119.3,49.5,117.2z"/>
						<path class="st0" d="M201.9,112.8c-0.2-1.6,0.5-3,1.6-4c0.9-0.9,1.7-1.4,2.8-1.7c0.7,1.4,0.2,3-0.7,4c-1,0.9-2.1,1.7-3.5,1.9
							L201.9,112.8z"/>
						<path class="st0" d="M48.8,112c-0.3-2.6,1.7-4.5,3.7-5.6c0.5-0.2,0.3,0.5,0.5,0.7c0.3,2.4-1.6,4.4-3.3,5.8
							C49.2,112.8,48.8,112.3,48.8,112z"/>
						<path class="st0" d="M202.4,107.6c-0.7-2.4,0.9-4.5,2.8-5.9c0.3-0.2,0.7-0.3,1-0.3c0.7,1.4,0.2,3-0.5,4.2
							C204.7,106.4,203.8,107.6,202.4,107.6z"/>
						<path class="st0" d="M48.5,106c0.2-1.2,0.3-2.6,1.4-3.5c0.9-0.7,1.7-1.4,3-1.7c0.9,1.4-0.2,3-0.9,4.2
							c-0.7,0.9-1.6,1.6-2.4,1.9C48.7,107.2,48.7,106.5,48.5,106z"/>
						<path class="st0" d="M202,101c0-2.3,1.4-4,3.3-5.2c0.5,0,0.9,0.3,0.9,0.9c0.2,1.2,0,2.4-0.9,3.5
							C204.5,100.8,202,103.9,202,101z"/>
						<path class="st0" d="M48.7,100.6c0.2-1.4,0.5-2.6,1.7-3.7c1-0.5,1.9-1.4,3.1-1.4c0.2,1.2-0.2,2.6-1,3.7c-1,1-2.3,2.1-3.5,2.1
							L48.7,100.6z"/>
						<path class="st0" d="M201.5,95.5c0.2-2.1,1.4-3.8,3-5.2c0.5-0.2,0.5,0.5,0.9,0.9c0.5,2.4-1,4.5-3,5.8
							C201.5,97.3,201.7,96.1,201.5,95.5z"/>
						<path class="st0" d="M49.2,95.2c0-1.7,1-3.5,2.6-4.2c0.9-0.3,1.7-1,2.4-0.5c0.2,2.3-1.7,4-3.5,5.1
							C50.2,95.7,49.2,96.4,49.2,95.2z"/>
						<path class="st0" d="M200.6,89.9c0.2-2.1,1.2-4.4,3-5.1c0.7,0.9,0.9,2.1,0.7,3.1C204,89.2,200.6,94.5,200.6,89.9z"/>
						<path class="st0" d="M50.2,90.5c-0.3-1,0.2-2.1,0.7-3c1.2-1.2,2.8-2.3,4.5-2.1c0.2,2.1-1.7,4-3.5,4.9
							C51.5,90.1,50.8,90.8,50.2,90.5z"/>
						<path class="st0" d="M199.6,82.6c0.5-1,1-2.3,1.9-3.1c0.9-0.2,1,1,1.2,1.6c0.5,2.4-1,4.2-2.6,5.6
							C199.1,85.7,199.3,83.8,199.6,82.6z"/>
						<path class="st0" d="M51.5,83.5c0.7-2.4,3.1-3.1,5.4-3.3c0.2,1.6-1,3.1-2.6,4C53.6,84.5,50.2,86.4,51.5,83.5z"/>
						<path class="st0" d="M197.7,77.7c0.5-1.2,0.9-2.6,1.9-3.7c0.5,0.2,1,0.9,1,1.4c0.7,2.4-0.9,4.5-2.3,5.9
							C197.7,80.5,197.3,78.9,197.7,77.7z"/>
						<path class="st0" d="M52.9,78.9c0.2-1.2,1-2.4,2.3-3.3c1.2-0.3,2.4-0.9,3.7-0.7c0,1.9-1.7,3.3-3.1,3.8
							C55,79.4,53,80,52.9,78.9z"/>
						<path class="st0" d="M195.8,74.7c-0.5-2.1,0.5-3.8,1.4-5.4c0.9-0.3,1.2,0.7,1.4,1.2c0.9,2.3-0.3,4.4-1.9,5.9
							C196.1,76.1,195.8,75.4,195.8,74.7z"/>
						<path class="st0" d="M55,73.8c0.2-1.2,1.2-2.6,2.4-3.1c1.2-0.3,2.6-0.9,3.8-0.3c-0.3,1.2-1,2.4-2.3,3c-1.2,0.5-2.4,1-3.8,1
							L55,73.8z"/>
						<path class="st0" d="M193.1,69.5c-0.3-1.9,0.3-3.5,1.2-5.1c1.2-0.3,1.4,1.2,1.7,1.9c0.3,1.9-0.7,3.7-1.7,5.2
							C193.8,71.2,193.5,70.3,193.1,69.5z"/>
						<path class="st0" d="M57.2,68.9c0.3-1,1-2.3,2.3-2.8s3-0.7,4.4-0.3c-0.5,2.1-2.8,3.3-4.7,3.7C58.3,69.1,57.4,70,57.2,68.9z"/>
						<path class="st0" d="M190.5,64.9c-0.5-1.9,0.3-3.7,0.9-5.2c1-0.5,1.4,0.9,1.7,1.4c0.9,2.1-0.2,4.2-1.2,5.8
							C191.2,66.7,190.9,65.6,190.5,64.9z"/>
						<path class="st0" d="M59.9,64.2c0.2-1.2,1.2-2.3,2.3-2.8c1.4-0.3,3.1-0.9,4.5,0c-1,2.6-3.8,3.3-6.5,3.3L59.9,64.2z"/>
						<path class="st0" d="M187.4,58.8c0-1.4,0.3-2.6,1-3.7c0.9,0,1.4,1,1.7,1.7c0.9,1.9,0,4-1,5.6
							C187.9,61.8,187.4,60.2,187.4,58.8z"/>
						<path class="st0" d="M63,60c-0.5-1.2,1-2.1,1.7-2.8c1.4-0.7,3.5-0.7,4.9,0C68.8,60,65.6,60.4,63,60z"/>
						<path class="st0" d="M184,51.5c0.2-0.3,0.2-0.5,0.5-0.5c1,0.2,1.6,1.2,1.9,1.9c0.5,1.7,0.2,3.8-0.9,5.2
							C183.7,56.7,183.5,53.7,184,51.5z"/>
						<path class="st0" d="M66.3,55.1c0.3-1.6,1.9-2.3,3.3-2.6c1.2,0,2.6-0.2,3.7,0.5c-0.3,1.7-2.3,2.3-3.7,2.6
							c-1,0.2-2.1,0.2-3.1-0.2L66.3,55.1z"/>
						<path class="st0" d="M179.8,49.4c0.2-0.9,0-1.9,0.7-2.6c0.9,0,1.7,1,2.1,1.9c0.9,1.6,0.3,3.8-0.3,5.2
							C180.5,53.2,180,51.3,179.8,49.4z"/>
						<path class="st0" d="M70,51.1c0-1.4,1.6-1.7,2.4-2.3c1.6-0.3,3.3,0,4.7,0.7c-0.2,0.9-1,1.4-1.7,1.7C73.9,51.8,71.4,52,70,51.1
							z"/>
						<path class="st0" d="M176,46.6c-0.2-1-0.3-2.6,0.5-3.3c1.2,0.2,1.7,1.4,2.4,2.3c0.5,1.6,0.3,3.5-0.3,4.9
							C176.9,49.7,176.3,48,176,46.6z"/>
						<path class="st0" d="M73.9,47.1c0.7-1.4,2.1-1.9,3.7-2.1c1.2,0.3,2.6,0.2,3.7,1c0.2,0.7-1,1.4-1.7,1.7
							C77.5,48.1,75.3,48.3,73.9,47.1z"/>
						<path class="st0" d="M171.6,42.4l0.2-2.3c0.9-0.5,1.6,0.5,2.3,1c1.4,1.6,1,3.8,0.7,5.8C172.5,46.4,172,44.1,171.6,42.4z"/>
						<path class="st0" d="M78.2,43.8c0.3-1.4,1.9-1.9,3.3-2.1c1.4,0.2,2.8,0.5,4,1.4c-0.3,0.9-1.2,1.2-1.9,1.6
							C81.7,45,79.6,44.6,78.2,43.8z"/>
						<path class="st0" d="M167.1,39.2c0.2-0.7-0.3-1.7,0.3-2.1c1.2,0,2.1,1,2.6,1.9c0.5,1.4,1,3.1,0.3,4.7
							C168.1,43.2,167.4,41,167.1,39.2z"/>
						<path class="st0" d="M82.6,40.6c-0.3-0.9,0.7-1.2,1.2-1.7c2.1-1,4.4,0,6.1,1.2c-0.5,0.7-1.6,1.2-2.4,1.4
							C85.6,42,84,41.3,82.6,40.6z"/>
						<path class="st0" d="M162.7,38.2c-0.5-1.2-0.9-2.3-0.9-3.8c0.5-0.5,1-0.2,1.6,0.2c2.1,1.2,2.3,3.7,2.4,5.8
							c-0.3,0.9-1.2-0.2-1.9-0.3L162.7,38.2z"/>
						<path class="st0" d="M87.3,37.5c-0.3-0.5,0.3-1,0.9-1.4c2.1-1,4.5-0.2,6.3,1l0.2,0.3C92.7,39.7,89.4,38.7,87.3,37.5z"/>
						<path class="st0" d="M157.5,34.7c-0.3-0.9-0.9-2.4,0-3c1.2,0.2,2.4,1,3.1,2.3c0.5,1.2,0.9,2.6,0.5,4
							C159.2,38,158,36.2,157.5,34.7z"/>
						<path class="st0" d="M92.2,34.7c-0.2-0.9,0.9-1,1.4-1.4c2.1-0.7,4.4,0.5,5.8,1.9c-0.5,0.7-1.6,0.9-2.3,1
							C95.2,36.6,93.6,35.9,92.2,34.7z"/>
						<path class="st0" d="M151.9,31.7c0-0.5-0.5-1.4,0.2-1.7c1.2,0,2.1,0.7,3,1.6c0.9,1.2,1.6,3,1,4.5
							C154,35.9,152.6,33.4,151.9,31.7z"/>
						<path class="st0" d="M97.3,32.6c-0.2-0.9,0.9-1,1.4-1.2c2.3-0.5,4.2,0.9,5.8,2.3c-0.2,0.5-1,0.7-1.6,1
							C100.6,34.8,98.9,33.6,97.3,32.6z"/>
						<path class="st0" d="M147.3,31.5l-1-2.8c1.2-1,2.3,0.3,3.3,0.9c1,1,1.6,2.6,1.7,4c-0.5,0.9-1.6,0-2.3-0.2L147.3,31.5z"/>
						<path class="st0" d="M102.4,30.5c0-0.9,1-0.9,1.6-1c2.4-0.3,4.4,1,5.4,3C106.9,33.8,104.1,32.4,102.4,30.5z"/>
						<path class="st0" d="M141.4,28.9c-0.2-0.7-0.9-1.2,0.2-1.7c1.7,0,3.5,1,4.2,2.6c0.3,0.9,1,1.9,0.5,2.8
							C144,32.6,142.2,30.7,141.4,28.9z"/>
						<path class="st0" d="M107.8,29.1c-0.2-0.9,0.9-0.9,1.2-1c2.4-0.3,4.4,1,5.6,3c0,0.5-0.9,0.7-1.6,0.9
							C110.9,31.7,109.4,30.7,107.8,29.1z"/>
						<path class="st0" d="M135.8,28c-0.2-0.5-0.9-1.7,0.3-1.7c1.2,0.2,2.3,0.3,3.1,1.2c0.9,1.2,1.7,2.3,1.7,3.8
							C138.7,31.7,136.8,30,135.8,28z"/>
						<path class="st0" d="M113.4,27.9c-0.2-0.5,0.3-0.9,0.7-0.9c1.6-0.3,3,0.2,4,0.9c0.7,0.9,1.9,1.6,1.9,2.6
							C117.4,31.5,115,29.8,113.4,27.9z"/>
						<path class="st0" d="M130.3,27.5c-0.2-0.3-0.5-0.7-0.3-1.2c1.2-0.7,2.8-0.2,3.8,0.5c1,1,2.1,2.4,2.1,3.8c-1.4,0.2-2.8,0-3.8-1
							L130.3,27.5z"/>
						<path class="st0" d="M119,27c-0.2-0.5,0.5-0.7,0.7-0.9c2.6-0.5,4.4,1.6,5.6,3.5c0.2,0.2,0.2,0.3,0.2,0.5
							c-1.6,0.5-3.3,0-4.5-0.9C120.2,28.7,119.3,27.9,119,27z"/>
						<path class="st0" d="M124.4,26.6c-0.2-0.5,0.5-0.9,0.9-0.9c1.2,0,2.6,0.2,3.5,1.2c0.7,1,1.9,2.1,1.7,3.3
							C127.9,30.8,125.6,28.9,124.4,26.6z"/>
					</g>
					<g>
						<path class="st0" d="M68.8,124l-1.6,4H63l3.5,2.4l-1.6,4.2l3.8-2.6l3.8,2.6l-1.6-4.2l3.5-2.4h-4.2L68.8,124z"/>
						<path class="st0" d="M186.8,124.9l-1.6,4H181l3.5,2.4l-1.6,4.2l3.8-2.6l3.8,2.6l-1.6-4.2l3.5-2.4h-4.2L186.8,124.9z"/>
					</g>
					<g>
						<path class="st0" d="M61.8,112l3.8-2.1l0.3,3.3L61.8,112z M66.7,109.5l1.7-0.9c0.5-0.2,0.9-0.2,0.9,0.2l0.2,0.9H70
							c-0.2-1-0.2-1.9-0.3-2.4c0-0.7-0.2-1.4-0.2-2.4H69v0.3c0,0.5-0.2,0.7-0.7,0.9l-9.3,5.1l0.2,1l2.4,0.7l7.3,2.3
							c0.5,0.2,0.9,0.3,1,0.9l0.2,0.5h0.5c-0.2-0.7-0.2-1.4-0.2-1.7c0-0.5,0-1-0.2-1.7h-0.5v0.9c0,0.3-0.2,0.7-0.9,0.5l-1.9-0.5
							L66.7,109.5z"/>
						<path class="st0" d="M69,90.6c0.7,0.2,1,0.2,1.2,0c0.2,0,0.2-0.2,0.3-0.7l0.2-0.5h0.7c-0.2,0.7-0.2,1.6-0.3,2.4
							c-0.2,0.9-0.2,1.7-0.3,2.4H70v-0.5c0-0.3,0-0.5-0.2-0.7s-0.5-0.2-1.2-0.3l-6.5-0.9l0,0l6.3,4.2c0.7,0.3,1.4,0.9,1.9,1.2v0.5
							C69.8,98,69.5,98,69,98.2l-8,2.6l0,0l6.5,0.9c0.7,0.2,1,0.2,1.2,0c0.2,0,0.3-0.2,0.3-0.7l0.2-0.5h0.5
							c-0.2,0.5-0.2,1.2-0.3,1.7c0,0.5-0.2,1.2-0.2,1.7h-0.5v-0.5c0-0.3,0-0.5-0.2-0.7s-0.5-0.2-1.2-0.3l-6.5-0.9
							c-0.7-0.2-1-0.2-1.2,0c-0.2,0-0.3,0.2-0.3,0.7l-0.2,0.5h-0.5c0.2-0.7,0.2-1.2,0.3-1.9c0.2-0.7,0.2-1.2,0.2-1.9
							c0.7-0.2,1.9-0.5,2.8-0.9l5.6-1.7l-5.6-3.7c-0.5-0.3-1.2-0.7-1.7-1c0.2-0.7,0.2-1.4,0.3-1.7c0-0.5,0.2-1,0.2-1.9h0.5v0.5
							c0,0.3,0,0.5,0.2,0.7s0.5,0.2,1.2,0.3L69,90.6z"/>
						<path class="st0" d="M67.2,83.6c0.2-0.3,0.3-0.7,0.3-1l0.3-1c0.2-0.5,0.3-0.9,0-1L67,80.1l0.2-0.5c0.5,0.2,1,0.3,1.6,0.7
							c0.5,0.2,1,0.3,1.6,0.5l-0.2,0.5l-0.7-0.2c-0.5-0.2-0.7,0.2-0.9,0.7l-0.3,1c-0.2,0.3-0.2,0.7-0.3,1l4,1.4
							c0.2-0.7,0.5-1.2,0.7-1.9c0.2-0.7,0.5-1.9,0.3-1.9l-1.2-0.9L72,80l2.3,1l0.2,0.2c-0.3,1-0.9,2.8-1.2,3.7
							c-0.2,0.7-0.5,1.2-0.7,1.7c-0.2,0.7-0.3,1.2-0.5,1.7l-0.3-0.2l-0.2-0.5c0-0.3-0.3-0.5-0.7-0.7l-6.8-2.4
							c-0.7-0.2-1-0.3-1.2-0.3s-0.3,0.2-0.5,0.5L62,85.4l-0.5-0.2c0.2-0.5,0.3-0.9,0.5-1.4c0.2-0.3,0.3-0.7,0.3-1
							c0.5-1.4,0.9-2.4,1.2-3.3s0.5-1.6,0.9-2.1h0.2l2.1,1l-0.2,0.5l-1.2-0.3c-0.2,0-0.7,0.9-0.9,1.6s-0.5,1.2-0.7,1.9L67.2,83.6z"
							/>
						<path class="st0" d="M68.1,74.7c-0.5-0.3-1-0.5-1.2-0.5s-0.3,0-0.5,0.3L66,75.1l-0.5-0.3c0.5-0.9,1-1.6,1.4-2.3
							c0.5-0.9,1-1.9,1.6-2.8c0.9-1.4,1.9-2.4,3.7-1.6c1.2,0.7,1.6,2.1,1.2,3.5l5.2-0.3c0.2,0,0.5,0,0.7-0.2c0.2,0,0.3-0.2,0.5-0.5
							l0.5,0.3c-0.3,0.3-0.5,0.9-0.9,1.4c-0.2,0.3-0.5,0.9-0.7,1.2l-6.6,0.3l-0.2-0.2c0.9-1.2,0.5-2.6-0.7-3.3
							c-1-0.7-2.3-0.2-2.8,0.9c-0.2,0.3-0.3,0.7-0.3,0.9l6.8,3.8c0.5,0.3,1,0.5,1.2,0.5s0.3-0.2,0.5-0.5l0.3-0.5l0.5,0.3
							c-0.3,0.5-0.9,1.2-1.2,2.1c-0.5,0.9-0.9,1.6-1.2,2.1l-0.5-0.3l0.2-0.5c0.2-0.3,0.2-0.5,0.2-0.7c-0.2-0.2-0.5-0.3-1-0.7
							L68.1,74.7z"/>
						<path class="st0" d="M81.2,66.7c0.5,0.3,0.9,0.7,1,0.7s0.3,0,0.5-0.3l0.3-0.3l0.5,0.3c-0.3,0.5-1,1.2-1.6,1.9
							c-0.5,0.7-1,1.4-1.6,1.9L80,70.5l0.3-0.5c0.2-0.3,0.3-0.5,0.2-0.7c-0.2-0.2-0.3-0.5-0.9-0.9l-5.1-4c-0.5-0.3-0.9-0.7-1-0.7
							s-0.3,0-0.5,0.3l-0.3,0.3L72.2,64c0.3-0.5,1-1.2,1.6-1.9c0.5-0.7,1-1.4,1.6-1.9l0.5,0.3L75.6,61c-0.2,0.3-0.3,0.5-0.2,0.7
							c0.2,0.2,0.3,0.5,0.9,0.9L81.2,66.7z"/>
						<path class="st0" d="M91.2,58.8c-0.3,1.2-1.2,2.3-2.1,3.1c-2.6,2.4-5.9,2.8-8.6,0c-2.4-2.6-1.6-6.1,0.9-8.4
							c0.9-0.9,1.7-1.6,3.3-2.1h0.2c0.3,0.5,1,1.4,1.4,2.1l-0.5,0.3l-1-0.9c-1,0-2.1,0.3-2.8,1.2c-1.9,1.7-1.7,4.2,0,5.9
							c1.9,2.1,4.7,2.4,6.8,0.5c0.7-0.7,1.4-1.7,1.7-2.6h0.3L91.2,58.8z"/>
						<path class="st0" d="M92,49.2l3.5,2.6l-2.8,1.7L92,49.2z M96.4,52.2l1.6,1.2c0.5,0.3,0.5,0.7,0.3,0.9l-0.7,0.5l0.3,0.5
							c0.9-0.5,1.6-1,2.1-1.4s1.2-0.7,2.1-1.2l-0.3-0.5l-0.3,0.2c-0.5,0.2-0.7,0.2-1-0.2L91.9,46l-1,0.5l0.5,2.4l1.2,7.5
							c0,0.5,0,1-0.2,1.2L92,58.1l0.3,0.5c0.7-0.3,1-0.7,1.6-1c0.3-0.2,0.9-0.5,1.6-0.9l-0.3-0.5l-0.7,0.3c-0.2,0.2-0.7,0-0.9-0.5
							l-0.3-1.9L96.4,52.2z"/>
						<path class="st0" d="M100.6,43.8c-0.2-0.7-0.3-1-0.5-1.2s-0.3-0.2-0.7,0l-0.5,0.2l-0.2-0.5c0.5-0.2,1.2-0.3,1.7-0.5
							c0.3-0.2,0.9-0.3,1.2-0.5c0.7,0.5,1.6,1,2.3,1.4l6.6,3.8l-1.9-5.4c-0.2-0.7-0.3-1-0.5-1.2s-0.3-0.2-0.7,0l-0.5,0.2l-0.2-0.5
							c0.5-0.2,1.2-0.3,1.7-0.5s1-0.5,1.7-0.7l0.2,0.5l-0.5,0.2c-0.3,0.2-0.5,0.3-0.5,0.5s0.2,0.7,0.3,1.2l2.4,6.8
							c0.2,0.5,0.3,1,0.5,1.6v0.2l-1.2,0.2c-0.9-0.5-1.7-0.9-2.6-1.4l-7-4.2l0,0l2.1,5.9c0.2,0.7,0.3,1,0.5,1.2s0.3,0.2,0.7,0
							l0.5-0.2l0.2,0.5c-0.5,0.2-1.2,0.3-1.7,0.5s-1.2,0.5-1.7,0.7l-0.2-0.5l0.5-0.2c0.3-0.2,0.5-0.3,0.5-0.5s-0.2-0.7-0.3-1.2
							L100.6,43.8z"/>
						<path class="st0" d="M119,38.9c0-0.7,0-1-0.2-1.2c0-0.2-0.2-0.2-0.7-0.2h-0.5v-0.7c0.7,0,1.6,0,2.4-0.2c0.9,0,1.7-0.2,2.4-0.2
							v0.7H122c-0.3,0-0.5,0.2-0.7,0.3c0,0.2,0,0.7,0,1.2l0.2,3c0,0,0,0.2,0.2,0l2.8-3.1c0.3-0.3,0.9-1,1.2-1.4
							c0.2-0.2,0.2-0.3,0.2-0.5v-0.3c0.5,0,1,0,1.4,0c0.5,0,1-0.2,1.4-0.2v0.7c-0.7,0.2-1.2,0.2-1.7,0.7l-3.3,3.5l4.5,4.7
							c0.3,0.3,0.9,0.7,1.6,0.7v0.7c-0.5,0-1,0-1.6,0c-0.5,0-1,0.2-1.6,0.2l-3.5-3.8c-0.3-0.3-1-1-1.2-1.2c-0.2,0-0.2,0.2-0.2,0.2
							l0.2,3c0,0.7,0,1,0.2,1.2c0,0.2,0.2,0.2,0.7,0.2h0.5v0.7c-0.7,0-1.6,0-2.4,0.2c-0.9,0-1.9,0.2-2.4,0.2v-0.7h0.5
							c0.3,0,0.5-0.2,0.7-0.3c0-0.2,0-0.7,0-1.2L119,38.9z"/>
						<path class="st0" d="M134.4,41.3c0.3,0,0.7,0.2,1,0.2l1,0.2c0.5,0,0.9,0,0.9-0.2l0.2-0.9h0.7c0,0.5-0.2,1-0.2,1.7
							c0,0.5-0.2,1.2-0.2,1.7h-0.7v-0.9c0-0.5-0.3-0.7-0.9-0.7l-1-0.2c-0.3,0-0.7,0-1,0l-0.5,4.2c0.7,0.2,1.4,0.2,2.1,0.3
							c0.7,0,1.9,0,1.9,0l0.5-1.4h0.7l-0.5,2.4l-0.2,0.2c-1,0-3-0.3-3.8-0.3c-0.7-0.2-1.2-0.2-1.9-0.3c-0.7,0-1.4-0.2-1.9-0.2v-0.3
							l0.5-0.2c0.3-0.2,0.3-0.3,0.3-0.9l0.9-7.2c0-0.7,0.2-1,0-1.2c0-0.2-0.2-0.3-0.7-0.3l-0.5-0.2v-0.5c0.5,0,1,0.2,1.4,0.2
							s0.7,0.2,1,0.2c1.6,0.2,2.6,0.3,3.5,0.3c0.9,0.2,1.6,0.2,2.3,0.3v0.2l-0.5,2.3h-0.5v-1.2c0-0.2-1-0.3-1.7-0.5
							c-0.7,0-1.4-0.2-2.1-0.2L134.4,41.3z"/>
						<path class="st0" d="M143.3,40.1c0.2-0.7,0.3-1,0.3-1.2s-0.2-0.3-0.5-0.5l-0.5-0.2l0.2-0.5c0.5,0.2,1.2,0.3,1.7,0.7
							c0.3,0.2,0.9,0.2,1.2,0.3c0.3,0.9,0.5,1.7,0.9,2.4l3,7l1.7-5.4c0.2-0.7,0.3-1,0.3-1.2s-0.2-0.3-0.5-0.5l-0.5-0.2l0.2-0.5
							c0.5,0.2,1.2,0.3,1.7,0.5s1.2,0.3,1.7,0.5l-0.2,0.5l-0.5-0.2c-0.3-0.2-0.5,0-0.7,0c-0.2,0.2-0.3,0.5-0.5,1.2l-2.3,7
							c-0.2,0.5-0.3,1-0.5,1.6h-0.2l-1.2-0.5c-0.3-0.9-0.9-1.7-1.2-2.8l-3-7.5l0,0l-1.9,5.9c-0.2,0.7-0.3,1-0.3,1.2s0.2,0.3,0.5,0.5
							l0.5,0.2l-0.2,0.5c-0.5-0.2-1.2-0.3-1.7-0.5s-1.2-0.3-1.7-0.5l0.2-0.5l0.5,0.2c0.3,0.2,0.5,0,0.7,0c0.2-0.2,0.3-0.5,0.5-1.2
							L143.3,40.1z"/>
						<path class="st0" d="M156.9,45.2c0.3-0.5,0.5-1,0.5-1.2s0-0.3-0.3-0.5l-0.5-0.3l0.3-0.5c0.5,0.3,1,0.7,1.6,1
							c0.3,0.2,0.9,0.3,1.2,0.7c0.2,0.9,0.2,1.7,0.3,2.6l1.4,7.5l3-4.9c0.3-0.5,0.5-0.9,0.5-1.2c0-0.2,0-0.3-0.3-0.5l-0.5-0.3
							l0.3-0.5c0.5,0.3,1,0.7,1.6,1c0.5,0.3,1,0.5,1.6,0.9l-0.3,0.5l-0.5-0.2c-0.3-0.2-0.5-0.2-0.7-0.2c-0.2,0.2-0.3,0.5-0.7,1
							l-3.7,6.3c-0.3,0.5-0.5,1-0.7,1.4h-0.2l-1-0.9c-0.2-1-0.3-1.9-0.5-3l-1.2-8l0,0l-3.1,5.4c-0.3,0.5-0.5,0.9-0.5,1.2
							c0,0.2,0,0.3,0.3,0.5l0.5,0.3l-0.3,0.5c-0.5-0.3-1-0.7-1.6-1c-0.5-0.3-1-0.5-1.6-0.9l0.3-0.5l0.5,0.2c0.3,0.2,0.5,0.2,0.7,0.2
							c0.2-0.2,0.3-0.5,0.7-1L156.9,45.2z"/>
						<path class="st0" d="M169,56.4c0.2,0.3,0.5,0.5,0.7,0.7l0.9,0.7c0.3,0.3,0.7,0.5,0.9,0.3l0.7-0.7l0.5,0.3
							c-0.3,0.3-0.7,0.9-1.2,1.2c-0.3,0.3-0.7,0.9-1,1.4L170,60l0.5-0.7c0.2-0.3,0.2-0.7-0.3-1l-0.9-0.7c-0.3-0.2-0.5-0.5-0.9-0.7
							l-2.8,3.1c0.5,0.5,1,0.9,1.6,1.4c0.5,0.5,1.6,1.2,1.6,1l1.2-0.9l0.5,0.3l-1.7,1.7h-0.2c-0.9-0.7-2.3-1.9-3-2.6
							c-0.5-0.5-0.9-0.9-1.4-1.4s-1-0.9-1.4-1.2L163,58l0.5,0.2c0.3,0,0.5-0.2,0.9-0.5l4.7-5.4c0.5-0.5,0.7-0.9,0.7-1
							c0-0.2,0-0.3-0.3-0.7l-0.3-0.3l0.3-0.5c0.3,0.3,0.7,0.7,1,0.9c0.3,0.3,0.5,0.5,0.9,0.7c1,1,1.9,1.7,2.6,2.3
							c0.7,0.5,1.2,1,1.7,1.6v0.2l-1.7,1.6l-0.3-0.3l0.7-1c0.2-0.2-0.7-0.9-1.2-1.4s-1-0.9-1.6-1.4L169,56.4z"/>
						<path class="st0" d="M172.3,67c0.3,0.5,0.9,1,1.2,1.6c0.5,0.5,1.4,1.4,1.4,1.4l1.6-0.7l0.3,0.5l-2.1,1.6h-0.2
							c-0.7-0.7-1.9-2.1-2.6-3c-0.3-0.5-0.9-1-1.2-1.6c-0.3-0.5-0.9-1-1.2-1.4l0.3-0.2l0.5,0.2c0.3,0.2,0.5,0,0.9-0.3l5.6-4.5
							c0.5-0.3,0.9-0.7,0.9-0.9s0-0.3-0.2-0.7l-0.3-0.5l0.5-0.3c0.3,0.5,0.9,1.2,1.6,1.9c0.5,0.7,1.2,1.4,1.6,1.9l-0.5,0.3L180,62
							c-0.3-0.3-0.5-0.3-0.5-0.3c-0.2,0-0.5,0.3-1,0.7L172.3,67z"/>
						<path class="st0" d="M182.1,83.8c-1-0.7-1.9-1.7-2.4-3c-1.6-3.3-0.9-6.6,2.4-8.2s6.3,0.3,7.7,3.3c0.5,1.2,0.9,2.3,1,3.8
							l-0.2,0.2c-0.5,0.2-1.7,0.5-2.4,0.7l-0.3-0.5l1.2-0.7c0.3-1,0.2-2.1-0.3-3.1c-1.2-2.4-3.5-2.8-5.8-1.7
							c-2.6,1.2-3.8,3.7-2.4,6.5c0.3,0.9,1.2,1.9,2.1,2.4l-0.2,0.2L182.1,83.8z"/>
						<path class="st0" d="M183.7,88.2c0.2,0.7,0.3,1.4,0.5,1.9c0.2,0.7,0.7,1.7,0.9,1.7l1.7-0.2l0.2,0.5l-2.6,0.5h-0.2
							c-0.3-1-0.9-2.8-1-3.8c-0.2-0.7-0.3-1.2-0.5-1.9c-0.2-0.7-0.3-1.2-0.5-1.9l0.3-0.2l0.3,0.3c0.2,0.2,0.5,0.2,1,0l6.8-1.9
							c0.7-0.2,1-0.3,1.2-0.5s0.2-0.3,0-0.7l-0.2-0.5l0.7-0.2c0.2,0.7,0.3,1.6,0.7,2.4c0.2,0.9,0.5,1.7,0.7,2.4l-0.7,0.2l-0.2-0.5
							c-0.2-0.3-0.2-0.5-0.3-0.5c-0.2,0-0.7,0-1.2,0.2L183.7,88.2z"/>
						<path class="st0" d="M193.1,94.3c0.7,0,1-0.2,1.2-0.2c0.2-0.2,0.2-0.2,0.2-0.7v-0.5h0.5c0,0.7,0.2,1.6,0.2,2.4
							s0.2,1.7,0.3,2.4H195l-0.2-0.5c0-0.3-0.2-0.5-0.3-0.7c-0.2,0-0.7,0-1.2,0l-4,0.3c-2.3,0.2-3.7,0.5-3.5,3.1s1.7,2.8,4,2.6
							l3.8-0.3c0.7,0,1-0.2,1.2-0.2c0.2-0.2,0.2-0.2,0.2-0.7V101h0.5c0,0.5,0,1.2,0.2,1.9c0,0.5,0.2,1.2,0.2,1.7h-0.5l-0.2-0.5
							c0-0.3-0.2-0.5-0.3-0.7c-0.2,0-0.7,0-1.2,0l-4.7,0.3c-3,0.3-4.4-1.2-4.7-4c-0.3-3,0.9-4.7,2.6-4.9L193.1,94.3z"/>
						<path class="st0" d="M190.5,109.9v0.5c-0.2,1.6-0.7,2.6-2.6,2.4c-1.4-0.2-2.3-0.9-2.3-2.4c0-0.3,0-0.5,0.2-0.9L190.5,109.9z
							 M195.1,110.4c0,0.3,0,0.7,0,1c-0.2,1.2-0.7,1.7-1.9,1.6c-1.6-0.2-1.9-1-1.7-2.4V110L195.1,110.4z M195.6,106.7l-0.2,0.5
							c0,0.3-0.2,0.5-0.3,0.7c-0.2,0-0.7,0-1.2,0l-7.2-0.7c-0.5,0-0.7-0.2-0.9-0.3l-0.2-0.5h-0.3c0,0.5,0,1.2-0.2,1.9
							c0,0.7-0.2,1.6-0.3,2.3c-0.3,2.6,1,4.5,3,4.7c1.9,0.2,2.6-0.9,3-3l0,0c0.3,1.6,0.7,3,2.4,3.1c1.7,0.2,2.3-1.4,2.4-2.8
							c0.2-1.2,0.2-2.1,0.3-3.3c0-0.7,0.2-1.4,0.3-2.4L195.6,106.7z"/>
					</g>
					<g>
						<path class="st0" d="M87.7,152.4l3.1,2.4l-0.5,0.7l-2.4-1.9l-1.6,1.9l2.3,1.7L88,158l-2.3-1.7l-2.1,2.6l-0.7-0.5L87.7,152.4z"
							/>
						<path class="st0" d="M96.6,162.7c-1.4,2.3-3.3,2.6-5.1,1.6s-2.1-3-0.9-4.9c1.2-2.1,3.3-2.6,5.1-1.6
							C97.3,158.8,97.6,160.9,96.6,162.7z M91.5,159.9c-0.9,1.4-0.9,3,0.5,3.8c1.2,0.7,2.8,0,3.7-1.4c0.7-1.2,0.9-3-0.5-3.8
							C93.8,157.6,92.4,158.5,91.5,159.9z"/>
						<path class="st0" d="M101.5,161.1l-1.7,4c-0.7,1.6-0.3,2.4,0.7,2.8c1,0.5,1.9,0,2.6-1.4l1.7-4l0.9,0.3l-1.7,4
							c-0.9,2.1-2.4,2.4-3.8,1.9s-2.1-1.9-1.2-4l1.7-4L101.5,161.1z"/>
						<path class="st0" d="M106.4,171.1l2.1-7.2l1,0.3l1.2,4.4c0.3,1,0.5,1.9,0.7,2.6l0,0c0.2-1,0.3-1.9,0.7-3l0.9-3l0.9,0.2
							l-2.1,7.2l-0.9-0.3l-1.2-4.4c-0.3-0.9-0.5-1.9-0.7-2.8l0,0c-0.2,0.9-0.3,1.7-0.7,3l-0.9,3.1L106.4,171.1z"/>
						<path class="st0" d="M116.7,166.2c0.5,0,1.2,0,2.1,0.2c1.4,0.2,2.3,0.7,2.8,1.4s0.9,1.6,0.7,2.8c-0.2,1.2-0.7,2.1-1.4,2.8
							c-0.9,0.5-1.9,0.9-3.5,0.5c-0.7-0.2-1.2-0.2-1.7-0.3L116.7,166.2z M116.7,172.8c0.2,0,0.5,0.2,0.9,0.2
							c2.1,0.3,3.3-0.7,3.7-2.6c0.2-1.7-0.5-3-2.6-3.3c-0.5,0-0.9,0-1,0L116.7,172.8z"/>
						<path class="st0" d="M129.1,171.1h-3v2.6h3.1v0.9H125l0.2-7.5h4v0.9h-3.1v2.3h3V171.1z"/>
						<path class="st0" d="M131.9,167.1c0.5-0.2,1.2-0.3,2.1-0.3c1.4-0.2,2.4,0,3.1,0.5c0.7,0.5,1.2,1.4,1.4,2.6s-0.2,2.3-0.7,3
							c-0.7,0.7-1.7,1.2-3.1,1.4c-0.7,0-1.2,0.2-1.7,0.2L131.9,167.1z M133.7,173.5c0.2,0,0.5,0,1,0c2.1-0.2,3-1.6,2.8-3.5
							c-0.2-1.7-1.2-2.8-3.3-2.4c-0.5,0-0.9,0.2-1,0.2L133.7,173.5z"/>
						<path class="st0" d="M146.6,165.3L146.6,165.3l-1,1l-0.3-0.7l1.2-1.2l0.9-0.2l2.1,6.8l-0.9,0.3L146.6,165.3z"/>
						<path class="st0" d="M153.1,167.9c-0.3-0.9-0.2-1.6,0.5-2.3l0,0c-0.9,0-1.4-0.5-1.7-1c-0.5-1,0.2-2.1,1.2-2.6
							c1.2-0.5,2.3,0,2.6,0.9c0.2,0.5,0.2,1.2-0.3,2.1l0,0c1,0,1.7,0.3,2.1,1.2c0.5,1.2-0.2,2.3-1.4,3
							C154.7,169.3,153.6,168.8,153.1,167.9z M152.7,164.1c0.3,0.7,0.9,0.9,1.7,0.7c0.5-0.5,0.7-1,0.5-1.6c-0.2-0.5-0.7-0.9-1.6-0.5
							C152.7,162.9,152.6,163.6,152.7,164.1z M156.8,166.4c-0.3-0.9-1-0.9-2.1-0.9c-0.7,0.5-0.9,1.2-0.5,1.9c0.2,0.7,1,1,1.9,0.7
							C156.6,167.8,156.9,167.1,156.8,166.4z"/>
						<path class="st0" d="M160.1,164.8c-0.5-0.9-0.3-1.6,0.3-2.4l0,0c-0.9,0-1.4-0.3-1.7-0.9c-0.5-1-0.2-2.1,1-2.8s2.3-0.3,2.6,0.5
							c0.3,0.5,0.3,1.2-0.2,2.1l0,0c0.9-0.2,1.7,0.2,2.1,0.9c0.7,1,0.2,2.3-1,3C161.8,166,160.6,165.7,160.1,164.8z M159.4,160.9
							c0.3,0.7,1,0.7,1.9,0.5c0.3-0.5,0.7-1,0.3-1.7c-0.3-0.5-0.9-0.9-1.6-0.3C159.2,159.7,159,160.4,159.4,160.9z M163.4,162.9
							c-0.3-0.7-1.2-0.9-2.1-0.5c-0.5,0.7-0.7,1.4-0.3,1.9c0.3,0.7,1,0.9,1.9,0.5C163.6,164.3,163.7,163.4,163.4,162.9z"/>
						<path class="st0" d="M170.2,160.4l-1.2-1.6l-2.6,1.9l-0.3-0.5l-0.2-5.6l0.9-0.7l2.6,3.7l0.9-0.5l0.5,0.7l-0.9,0.5l1.2,1.6
							L170.2,160.4z M168.6,158.1l-1.4-1.9c-0.2-0.3-0.5-0.5-0.7-0.9l0,0c0,0.5,0.2,0.9,0.2,1.2v3l0,0L168.6,158.1z"/>
					</g>
				</g>
			</g>
		</g>
		<g>
			<path class="st0" d="M196.1,169.9c0,2.6-2.1,4.7-4.7,4.7s-4.7-2.1-4.7-4.7s2.1-4.7,4.7-4.7C194,165.1,196.1,167.2,196.1,169.9z
				 M187.7,169.9c0,2.1,1.6,3.7,3.7,3.7c2.1,0,3.5-1.6,3.5-3.7s-1.6-3.7-3.5-3.7S187.7,167.8,187.7,169.9z M190.7,172.1h-1v-4.5
				c0.3,0,1-0.2,1.7-0.2c0.9,0,1.2,0.2,1.6,0.3c0.2,0.2,0.5,0.5,0.5,1s-0.3,0.9-1,1l0,0c0.5,0.2,0.7,0.5,0.9,1
				c0.2,0.7,0.2,1,0.3,1.2h-1.2c-0.2-0.2-0.2-0.5-0.3-1c0-0.5-0.3-0.7-1-0.7h-0.5v1.7l0,0V172.1z M190.7,169.5h0.5
				c0.5,0,1-0.2,1-0.7c0-0.3-0.3-0.7-1-0.7c-0.3,0-0.5,0-0.5,0V169.5z"/>
		</g>
		<g>
			<path class="st0" d="M252.2,94.1c0,6.3-4.2,10.5-10.1,10.5h-5.4c-0.2,0-0.2,0.2-0.2,0.2v13.1c0,0.3-0.2,0.5-0.5,0.5h-6
				c-0.3,0-0.5-0.2-0.5-0.5V84c0-0.3,0.2-0.5,0.5-0.5h12.1C248,83.3,252.2,87.7,252.2,94.1z M245.2,94.3c0-3-1.7-4.9-4.4-4.9h-4.2
				c-0.2,0-0.2,0.2-0.2,0.2v9.1c0,0.2,0.2,0.2,0.2,0.2h4.2C243.5,99,245.2,97.1,245.2,94.3z"/>
			<path class="st0" d="M275.8,89.4h-13.5c-0.2,0-0.2,0.2-0.2,0.2v7.9c0,0.2,0.2,0.2,0.2,0.2h8.4c0.3,0,0.5,0.2,0.5,0.5v4.9
				c0,0.3-0.2,0.5-0.5,0.5h-8.4c-0.2,0-0.2,0.2-0.2,0.2v8c0,0.2,0.2,0.2,0.2,0.2h13.5c0.3,0,0.5,0.2,0.5,0.5v4.9
				c0,0.3-0.2,0.5-0.5,0.5h-20.1c-0.3,0-0.5-0.2-0.5-0.5V83.5c0-0.3,0.2-0.5,0.5-0.5h20.1c0.3,0,0.5,0.2,0.5,0.5v4.9
				C276.5,89.2,276.2,89.4,275.8,89.4z"/>
			<path class="st0" d="M303.1,84v4.9c0,0.3-0.2,0.5-0.5,0.5h-7.7c-0.2,0-0.2,0.2-0.2,0.2v28.2c0,0.3-0.2,0.5-0.5,0.5h-5.9
				c-0.3,0-0.5-0.2-0.5-0.5V89.6c0-0.2-0.2-0.2-0.2-0.2h-7.3c-0.3,0-0.5-0.2-0.5-0.5V84c0-0.3,0.2-0.5,0.5-0.5h22.6
				C303,83.5,303.1,83.6,303.1,84z"/>
		</g>
		<g>
			<path class="st0" d="M229.3,162.5v-33.9c0-0.3,0.2-0.5,0.5-0.5h5.9c0.3,0,0.5,0.2,0.5,0.5v33.9c0,0.3-0.2,0.5-0.5,0.5h-5.9
				C229.5,163.2,229.3,162.9,229.3,162.5z"/>
			<path class="st0" d="M241.6,162.5v-33.9c0-0.3,0.2-0.5,0.5-0.5h5.9c0.3,0,0.5,0.2,0.7,0.5l9.6,19.9c0.2,0.2,0.3,0.2,0.3-0.2
				v-19.8c0-0.3,0.2-0.5,0.5-0.5h5.8c0.3,0,0.5,0.2,0.5,0.5v33.9c0,0.3-0.2,0.5-0.5,0.5H259c-0.3,0-0.5-0.2-0.7-0.5l-9.6-20.1
				c-0.2-0.2-0.3-0.2-0.3,0.2l0.2,19.9c0,0.3-0.2,0.5-0.5,0.5h-5.8C241.9,163.2,241.6,162.9,241.6,162.5z"/>
			<path class="st0" d="M270.1,153.8v-1.4c0-0.3,0.2-0.5,0.5-0.5h5.8c0.3,0,0.5,0.2,0.5,0.5v1c0,2.3,1.9,4.2,4.7,4.2
				c2.6,0,4-1.6,4-3.5c0-2.3-1.9-3.3-6.1-5.6c-4.5-2.3-9.4-4.9-9.4-11.2c0-5.9,4.5-9.6,11-9.6c6.8,0,11.5,4.2,11.5,10.1v1
				c0,0.3-0.2,0.5-0.5,0.5h-5.8c-0.3,0-0.5-0.2-0.5-0.5v-1c0-2.3-1.7-4.2-4.5-4.2c-2.4,0-3.8,1.2-3.8,3.5s1.7,3.3,6.3,5.6
				c4.9,2.8,9.4,4.9,9.4,10.7c0,6.1-4.5,10-11.4,10C274.6,163.6,270.1,159.5,270.1,153.8z"/>
			<path class="st0" d="M296.8,152.4v-23.8c0-0.3,0.2-0.5,0.5-0.5h5.9c0.3,0,0.5,0.2,0.5,0.5v24.1c0,2.8,1.7,4.7,4.4,4.7
				s4.4-1.9,4.4-4.7v-24.1c0-0.3,0.2-0.5,0.5-0.5h5.9c0.3,0,0.5,0.2,0.5,0.5v23.8c0,6.6-4.5,11.2-11.5,11.2
				C301.4,163.6,296.8,159,296.8,152.4z"/>
			<path class="st0" d="M340.6,162.7l-5.1-13.8c0-0.2-0.2-0.2-0.2-0.2h-3.1c-0.2,0-0.2,0.2-0.2,0.2v13.6c0,0.3-0.2,0.5-0.5,0.5h-5.9
				c-0.3,0-0.5-0.2-0.5-0.5v-33.9c0-0.3,0.2-0.5,0.5-0.5h12.2c5.9,0,10.1,4.4,10.1,10.7c0,4.4-1.9,7.5-5.4,9.1
				c-0.2,0-0.2,0.2-0.2,0.3l5.8,14.3c0.2,0.5,0,0.7-0.5,0.7h-6.1C340.9,163.2,340.7,163,340.6,162.7z M332,134.4v8.6
				c0,0.2,0.2,0.2,0.2,0.2h4.4c2.4,0,4.2-1.7,4.2-4.5s-1.7-4.5-4.2-4.5h-4.4C332,134.2,332,134.2,332,134.4z"/>
			<path class="st0" d="M370.6,162.7l-1.2-4.9c0-0.2-0.2-0.2-0.2-0.2h-9.4c-0.2,0-0.2,0-0.2,0.2l-1.2,4.9c-0.2,0.3-0.3,0.5-0.7,0.5
				h-6.1c-0.3,0-0.5-0.2-0.5-0.7l9.1-33.9c0.2-0.3,0.3-0.5,0.7-0.5h7.3c0.3,0,0.5,0.2,0.7,0.5l9.1,33.9c0.2,0.5-0.2,0.7-0.5,0.7
				h-6.1C371,163.2,370.8,163,370.6,162.7z M361.4,152h6.6c0.2,0,0.3-0.2,0.2-0.3l-3.3-14.2c0-0.2-0.2-0.2-0.3,0l-3.5,14.2
				C361,152,361.2,152,361.4,152z"/>
			<path class="st0" d="M382,162.5v-33.9c0-0.3,0.2-0.5,0.5-0.5h5.9c0.3,0,0.5,0.2,0.7,0.5l9.6,19.9c0.2,0.2,0.3,0.2,0.3-0.2v-19.8
				c0-0.3,0.2-0.5,0.5-0.5h5.8c0.3,0,0.5,0.2,0.5,0.5v33.9c0,0.3-0.2,0.5-0.5,0.5h-5.9c-0.3,0-0.5-0.2-0.7-0.5l-9.6-20.1
				c-0.2-0.2-0.3-0.2-0.3,0.2l0.2,19.9c0,0.3-0.2,0.5-0.5,0.5h-5.8C382.2,163.2,382,162.9,382,162.5z"/>
			<path class="st0" d="M410.7,152.5v-14c0-6.6,4.5-11,11.5-11s11.5,4.2,11.5,10.7v0.2c0,0.3-0.2,0.7-0.5,0.7l-5.9,0.2
				c-0.3,0-0.5-0.2-0.5-0.5V138c0-2.8-1.7-4.5-4.4-4.5s-4.4,1.7-4.4,4.5v14.7c0,2.6,1.7,4.5,4.4,4.5s4.4-1.7,4.4-4.5V152
				c0-0.3,0.2-0.5,0.5-0.5l5.9,0.2c0.3,0,0.5,0.2,0.5,0.3v0.3c0,6.5-4.5,10.8-11.5,10.8C415.2,163.2,410.7,159.2,410.7,152.5z"/>
			<path class="st0" d="M459,134.2h-13.5c-0.2,0-0.2,0.2-0.2,0.2v7.9c0,0.2,0.2,0.2,0.2,0.2h8.4c0.3,0,0.5,0.2,0.5,0.5v4.9
				c0,0.3-0.2,0.5-0.5,0.5h-8.4c-0.2,0-0.2,0.2-0.2,0.2v8c0,0.2,0.2,0.2,0.2,0.2H459c0.3,0,0.5,0.2,0.5,0.5v4.9
				c0,0.3-0.2,0.5-0.5,0.5h-20.1c-0.3,0-0.5-0.2-0.5-0.5v-33.9c0-0.3,0.2-0.5,0.5-0.5H459c0.3,0,0.5,0.2,0.5,0.5v4.9
				C459.7,133.8,459.3,134.2,459,134.2z"/>
		</g>
	</g>
</g>
</svg>
