<?xml version="1.0" encoding="utf-8"?>
<!-- Generator: Adobe Illustrator 26.5.0, SVG Export Plug-In . SVG Version: 6.00 Build 0)  -->
<svg version="1.1" id="Layer_1" xmlns="http://www.w3.org/2000/svg" xmlns:xlink="http://www.w3.org/1999/xlink" x="0px" y="0px"
	 viewBox="0 0 512 250" style="enable-background:new 0 0 512 250;" xml:space="preserve">
<style type="text/css">
	.st0{fill:#363636;}
</style>
<g>
	<g>
		<g>
			<path class="st0" d="M282.1,106.1c0,2.3-0.7,4-2.3,5.3c-1.6,1.3-3.9,1.9-6.7,1.9h-2.6v9h-2.6V99.4h5.9
				C279.4,99.4,282.1,101.6,282.1,106.1z M270.5,111.1h2.3c2.3,0,4-0.3,5.2-1.1c1.1-0.7,1.6-2,1.6-3.6s-0.4-2.6-1.6-3.5
				c-0.9-0.7-2.5-1.1-4.6-1.1h-2.9L270.5,111.1L270.5,111.1z"/>
			<path class="st0" d="M300.5,122.3h-12.7V99.4h12.7v2.3h-10.1v7.3h9.5v2.3h-9.5v8.5h10.1V122.3z"/>
			<path class="st0" d="M314.8,122.3h-2.6v-20.5H305v-2.3h17.1v2.3h-7.3L314.8,122.3L314.8,122.3z"/>
			<path class="st0" d="M350.7,122.3H348v-10.7h-12v10.7h-2.6V99.4h2.6v9.7h12v-9.7h2.6V122.3z"/>
			<path class="st0" d="M371,122.3h-12.7V99.4H371v2.3h-10.1v7.3h9.5v2.3h-9.5v8.5H371V122.3z"/>
			<path class="st0" d="M392.8,122.3L390,115h-9.2l-2.8,7.3h-2.6l9-22.8h2.2l9,22.8C395.7,122.3,392.8,122.3,392.8,122.3z
				 M389.3,112.6l-2.6-7c-0.3-0.9-0.6-2-1.1-3.3c-0.1,0.9-0.6,2-0.9,3.3l-2.6,7H389.3z"/>
			<path class="st0" d="M400.6,122.3V99.4h2.6v20.3h10.1v2.3L400.6,122.3L400.6,122.3z"/>
			<path class="st0" d="M423.4,122.3h-2.6v-20.5h-7.2v-2.3h17.1v2.3h-7.2L423.4,122.3L423.4,122.3z"/>
			<path class="st0" d="M453,122.3h-2.6v-10.7h-12v10.7h-2.6V99.4h2.6v9.7h12v-9.7h2.6V122.3z"/>
			<path class="st0" d="M267.5,150.9v-23.5h4.9v23.5H267.5z"/>
			<path class="st0" d="M298.8,150.9h-6.4l-10.3-17.8H282c0.1,3.2,0.3,5.5,0.3,6.7v11h-4.5v-23.5h6.2l10.1,17.6h0.1
				c-0.1-3.2-0.3-5.2-0.3-6.5v-11h4.5v23.5C298.5,150.9,298.8,150.9,298.8,150.9z"/>
			<path class="st0" d="M318.4,144.4c0,2.2-0.7,3.7-2.3,4.9c-1.6,1.3-3.6,1.9-6.4,1.9c-2.5,0-4.6-0.4-6.7-1.4v-4.6
				c1.6,0.7,2.9,1.3,4,1.6c1.1,0.3,2,0.4,2.9,0.4c1.1,0,1.9-0.1,2.5-0.6c0.6-0.4,0.9-1.1,0.9-1.9c0-0.4-0.1-0.9-0.3-1.3
				c-0.1-0.3-0.6-0.7-1.1-1.1c-0.4-0.3-1.6-0.9-3.2-1.6c-1.4-0.6-2.5-1.3-3.3-1.9c-0.7-0.6-1.3-1.4-1.7-2.2
				c-0.4-0.7-0.6-1.7-0.6-2.9c0-2,0.7-3.7,2.2-4.8c1.4-1.3,3.5-1.7,5.8-1.7c1.3,0,2.3,0.1,3.5,0.4c1.1,0.3,2.3,0.6,3.5,1.3l-1.6,3.9
				c-1.3-0.4-2.3-0.9-3.2-1.1c-0.7-0.1-1.6-0.3-2.5-0.3s-1.7,0.1-2.2,0.6c-0.4,0.4-0.7,1.1-0.7,1.7c0,0.4,0.1,0.7,0.3,1.1
				c0.1,0.3,0.4,0.6,0.9,0.9c0.4,0.3,1.6,0.7,3.2,1.7c2.2,1.1,3.7,2,4.5,3.2C318.1,141.5,318.4,142.8,318.4,144.4z"/>
			<path class="st0" d="M341.4,127.4v15.3c0,1.7-0.3,3.3-1.1,4.5c-0.7,1.3-1.9,2.3-3.5,2.9c-1.4,0.6-3.3,1.1-5.2,1.1
				c-2.9,0-5.3-0.7-7-2.3s-2.5-3.7-2.5-6.4v-15h4.9v14.3c0,1.9,0.3,3.2,1.1,4c0.7,0.7,1.9,1.3,3.6,1.3c1.6,0,2.8-0.4,3.6-1.3
				c0.7-0.7,1.1-2.2,1.1-4v-14.3C336.4,127.4,341.4,127.4,341.4,127.4z"/>
			<path class="st0" d="M351.6,141.8v9h-4.9v-23.5h6.8c3.2,0,5.6,0.6,7,1.7c1.6,1.1,2.3,2.9,2.3,5.3c0,1.4-0.3,2.6-1.1,3.7
				c-0.7,1.1-1.9,1.9-3.3,2.5c3.6,5.3,5.8,8.7,6.8,10.3h-5.5l-5.6-9H351.6L351.6,141.8z M351.6,137.8h1.6c1.6,0,2.8-0.3,3.5-0.7
				c0.7-0.4,1.1-1.4,1.1-2.5c0-1.1-0.3-1.9-1.1-2.3c-0.7-0.4-2-0.7-3.6-0.7h-1.6L351.6,137.8L351.6,137.8z"/>
			<path class="st0" d="M384.4,150.9l-1.7-5.6h-8.5l-1.7,5.6h-5.3l8.2-23.5h6.1l8.2,23.5H384.4z M381.5,141.1
				c-1.6-5.2-2.5-7.9-2.6-8.5c-0.1-0.6-0.3-1.3-0.4-1.6c-0.3,1.4-1.4,4.8-2.9,10.1H381.5L381.5,141.1z"/>
			<path class="st0" d="M413.7,150.9h-6.4l-10.3-17.8l0,0c0.1,3.2,0.3,5.5,0.3,6.7v11h-4.5v-23.5h6.2L409,145h0.1
				c-0.1-3.2-0.3-5.2-0.3-6.5v-11h4.5v23.5H413.7z"/>
			<path class="st0" d="M429.1,131.3c-1.9,0-3.3,0.7-4.3,2.2c-1.1,1.4-1.6,3.5-1.6,5.9c0,5.3,2,7.8,5.9,7.8c1.7,0,3.6-0.4,5.9-1.3
				v4.2c-1.9,0.7-4,1.3-6.4,1.3c-3.5,0-6.1-1.1-7.8-3.2c-1.9-2-2.6-4.9-2.6-8.8c0-2.5,0.4-4.5,1.4-6.4c0.9-1.9,2.2-3.3,3.9-4.2
				c1.7-0.9,3.6-1.4,5.9-1.4c2.3,0,4.5,0.6,6.8,1.7l-1.6,4c-0.9-0.4-1.7-0.7-2.6-1.1C431.1,131.7,430.1,131.3,429.1,131.3z"/>
			<path class="st0" d="M453,150.9h-13.6v-23.5H453v4h-8.5v5.2h7.9v4h-7.9v6.1h8.5V150.9z"/>
		</g>
	</g>
	<g>
		<path class="st0" d="M79.3,133l5.3-17.6h0.1l0,0l5.3,17.6H79.3z M121.8,109.5c4,0,4.3,3.3,4.6,4.9h10.7v-8.4
			c-0.3-0.4-0.7-1.1-1.1-1.6c-3.3-3.9-8.8-5.8-13.9-5.8c-8.7-0.1-18.1,5.3-18.1,14.9s8.8,13.3,12.6,14.6c7.9,3.3,10.1,4.2,10.1,7.6
			c0,2.3-1.9,4.9-4.9,4.9c-1.7,0-5.3-1.1-5.3-7h-13l0,0L89.7,99.3H79.4l-20.5,51.3H73l2.6-7.5h17.8l2.5,7.5h14.2l-0.9-2.9
			c2.8,2.3,7,3.9,12.9,3.9c7.9,0,12.6-2.8,15.3-6.5v-17.5c-1.9-2.3-4.8-4.3-9.4-6.4c-9.2-4.2-10.6-4.8-10.6-7.8
			C117.3,111.1,119.5,109.5,121.8,109.5 M227.8,133.5l5.3-17.6h0.1l0,0l5.3,17.6H227.8z M208.9,131.6c-0.7,1.9-4.2,8.7-12.3,8.7
			c-8.5,0-13.9-7.5-13.9-15.3c0-7.3,4.9-14.9,13.7-14.9c7,0,10.9,5.2,12.4,8.8h11.7l-5.2,12.6L208.9,131.6L208.9,131.6z M238.4,99.6
			h-10.3l-6.4,15.9c-2.9-7.8-11.1-17.2-25.3-17.2c-8.2,0-14.7,3.3-19.5,8.1c1.7,3.2,2.6,6.7,2.6,10.3c0,5.8-2.2,11.7-6.1,14.9l0,0
			l0,0c-0.7,0.6-1.6,1.3-2.5,1.9c3.5,10.1,12.9,18.1,25.5,18.1c4.2,0,8.1-0.9,11.7-2.6l-0.7,2h14l2.6-7.5h17.8l2.5,7.5h14.2
			L238.4,99.6z"/>
		<path class="st0" d="M250.4,103.1h0.4c0.4,0,0.9-0.1,0.9-0.6c0-0.3-0.1-0.6-0.9-0.6c-0.1,0-0.3,0-0.4,0V103.1z M250.4,105.1h-0.6
			v-3.6c0.3,0,0.6-0.1,0.9-0.1c0.4,0,0.9,0.1,1.1,0.3c0.1,0.1,0.3,0.4,0.3,0.7c0,0.4-0.3,0.7-0.6,0.9l0,0c0.3,0,0.4,0.3,0.6,0.9
			c0.1,0.6,0.1,0.7,0.1,0.9h-0.6c-0.1-0.1-0.1-0.4-0.3-0.9c-0.2-0.5-0.3-0.6-0.7-0.6h-0.1L250.4,105.1L250.4,105.1z M251.1,100.5
			c-1.4,0-2.5,1.3-2.5,2.6c0,1.6,1.1,2.6,2.5,2.6c1.4,0,2.5-1.3,2.5-2.6S252.4,100.5,251.1,100.5L251.1,100.5z M251.1,100.1
			c1.7,0,3.2,1.4,3.2,3.2c0,1.9-1.4,3.3-3.2,3.3c-1.7,0-3.2-1.4-3.2-3.3C247.9,101.4,249.3,100.1,251.1,100.1L251.1,100.1z"/>
		<path class="st0" d="M151.7,123.2h5.3c2.5,0,8.2,0,8.2-6.2c0-6.1-5.9-6.1-8.7-6.1h-4.8C151.7,111.1,151.7,123.2,151.7,123.2z
			 M139,99.6h16.8c9.5,0,13,1.4,15.9,3.7c4,3.3,6.1,8.4,6.1,13.6c0,5.2-2.2,10.7-5.5,13.6c-3.6,2.9-7,4.5-14.9,4.5h-5.8v16.2H139
			C139,150.9,139,99.6,139,99.6z"/>
	</g>
</g>
</svg>
