<?xml version="1.0" encoding="utf-8"?>
<!-- Generator: Adobe Illustrator 26.5.0, SVG Export Plug-In . SVG Version: 6.00 Build 0)  -->
<svg version="1.1" id="Layer_1" xmlns="http://www.w3.org/2000/svg" xmlns:xlink="http://www.w3.org/1999/xlink" x="0px" y="0px"
	 viewBox="0 0 512 250" style="enable-background:new 0 0 512 250;" xml:space="preserve">
<style type="text/css">
	.st0{fill:#363636;}
</style>
<g>
	<g>
		<path class="st0" d="M382,162.3L382,162.3L382,162.3c-9.4,0-15.8,1.8-16.7,2.1v0.6v12.4c0,4.9,1.5,9.2,1.5,9.2
			c3.1,9.1,14.2,18.2,15,18.9l0,0l0,0l0,0l0,0l0,0l0,0c0.8-0.6,11.9-9.6,15-18.9c0,0,1.5-4.4,1.5-9.2V165v-0.6
			C397.8,164.1,391.4,162.3,382,162.3 M382.3,173.8c-2.3,0-4.1-1.9-4.1-4.1c0-2.3,1.8-4.1,4.1-4.1c2.3,0,4.1,1.9,4.1,4.1
			C386.4,171.9,384.6,173.8,382.3,173.8"/>
	</g>
	<rect x="177.3" y="67.3" class="st0" width="14.1" height="83"/>
	<polygon class="st0" points="77.5,150.3 92.1,150.3 92.1,120.3 148.1,120.3 148.1,107.6 92.1,107.6 92.1,79.9 160.6,79.9 
		160.6,67.3 77.5,67.3 	"/>
	<g>
		<path class="st0" d="M382.3,169.6c1.4,0,2.4-1.2,2.6-2.6v-25.8h-5v25.9C380,168.5,381,169.6,382.3,169.6"/>
		<path class="st0" d="M380.6,64.5c-31.7,0-53.9,16.8-53.9,43.2c0,26,22.7,45,53.9,45c1.4,0,2.8-0.1,4.2-0.1v-13.5
			c-1.4,0.1-2.8,0.1-4.2,0.1c-19.5,0-40.7-9.9-40.7-31.6c0-21.8,20.4-30.4,40.7-30.4c30,0,40.7,15.8,40.7,30.4
			c0,18.5-14.6,28.3-31.4,30.9v13.6c26.7-3.2,44.6-20.5,44.6-44.4C434.5,81.3,412.3,64.5,380.6,64.5"/>
		<path class="st0" d="M255.8,107.6v12.7h43v10.8c-6.2,3.1-20.5,9.4-38,9.2c-21.3-0.3-38.2-11.8-38.2-33.2c0-17.2,13.6-29,35.7-29
			c15.1,0,33.5,3.7,37.7,17.3h15.3c-5.5-22.6-31.4-30.7-53-30.7c-29.6,0-50,17.6-50,42.5c0,29.6,23.5,46.3,52.5,46.6
			c0.3,0,0.5,0,0.8,0c26.7,0,46.6-12.4,47.5-13l3.1-1.9V108v-0.3h-16.8h-39.4V107.6z"/>
	</g>
</g>
</svg>
